<?xml version="1.0" encoding="UTF-8"?>
<svg width="24px" height="24px" viewBox="0 0 24 24" version="1.1" xmlns="http://www.w3.org/2000/svg" xmlns:xlink="http://www.w3.org/1999/xlink">
    <title>facts_ic/users</title>
    <g id="Page-1" stroke="none" stroke-width="1" fill="none" fill-rule="evenodd">
        <g id="320" transform="translate(-74.000000, -1063.000000)">
            <g id="01_main" transform="translate(-320.000000, 0.000000)">
                <g id="facts-copy" transform="translate(364.000000, 1049.000000)">
                    <g id="Group-2" transform="translate(16.000000, 0.000000)">
                        <g id="trades" transform="translate(12.000000, 12.000000)">
                            <rect id="Rectangle" x="0" y="0" width="27.9272727" height="27.9272727"></rect>
                            <path d="M13.9636364,2.61818182 C7.69771484,2.61818182 2.61818182,7.69771484 2.61818182,13.9636364 C2.61818182,20.2295579 7.69771484,25.3090909 13.9636364,25.3090909 C20.2295579,25.3090909 25.3090909,20.2295579 25.3090909,13.9636364 C25.3018523,7.7007156 20.2265571,2.62542039 13.9636364,2.61818182 Z M19.3670455,11.9769884 L12.9664778,18.0860793 C12.628478,18.4076706 12.0976594,18.4076706 11.7596596,18.0860793 L8.56022727,15.0315338 C8.21217651,14.6981369 8.19994896,14.1458302 8.53290376,13.7973564 C8.86585856,13.4488827 9.41814933,13.435954 9.76704545,13.7684662 L12.3630676,16.2477273 L18.1602273,10.7139207 C18.5091234,10.3814086 19.0614142,10.3943373 19.394369,10.742811 C19.7273238,11.0912847 19.7150962,11.6435915 19.3670455,11.9769884 Z" id="Shape" fill="#7C52D8" fill-rule="nonzero"></path>
                        </g>
                    </g>
                </g>
            </g>
        </g>
    </g>
</svg>