<?xml version="1.0" encoding="UTF-8"?>
<svg width="30px" height="30px" viewBox="0 0 30 30" version="1.1" xmlns="http://www.w3.org/2000/svg" xmlns:xlink="http://www.w3.org/1999/xlink">
    <title>cube-bold</title>
    <g id="Symbols" stroke="none" stroke-width="1" fill="none" fill-rule="evenodd">
        <g id="cube-bold">
            <rect id="Rectangle" x="0" y="0" width="30" height="30"></rect>
            <line x1="15.1244191" y1="15" x2="15" y2="27.0480891" id="Path" stroke="#6939CF" stroke-width="2.8125" stroke-linecap="round" stroke-linejoin="round"></line>
            <path d="M25.78125,20.5467516 L25.78125,9.45324844 C25.78125,9.11524641 25.5993059,8.80341253 25.3050539,8.63709609 L15.4613039,3.0732375 C15.1750485,2.91144088 14.8249515,2.91144088 14.5386961,3.0732375 L4.69494609,8.63709609 C4.40069413,8.80341253 4.21875,9.11524641 4.21875,9.45324844 L4.21875,20.5467516 C4.21875,20.884754 4.40069377,21.1965884 4.69494609,21.3629051 L14.5386961,26.9267637 C14.8249515,27.0885603 15.1750485,27.0885603 15.4613039,26.9267637 L25.3050539,21.3629051 C25.5993062,21.1965884 25.78125,20.884754 25.78125,20.5467516 Z" id="Path" stroke="#6939CF" stroke-width="2.8125" stroke-linecap="round" stroke-linejoin="round"></path>
            <polyline id="Path" stroke="#6939CF" stroke-width="2.8125" stroke-linecap="round" stroke-linejoin="round" points="25.6528125 8.97972656 15.1244531 15 4.34800781 8.9784375"></polyline>
        </g>
    </g>
</svg>