<?xml version="1.0" encoding="UTF-8"?>
<svg width="22px" height="22px" viewBox="0 0 22 22" version="1.1" xmlns="http://www.w3.org/2000/svg" xmlns:xlink="http://www.w3.org/1999/xlink">
    <title>facts_ic/users</title>
    <g id="Page-1" stroke="none" stroke-width="1" fill="none" fill-rule="evenodd">
        <g id="320" transform="translate(-224.000000, -887.000000)">
            <g id="01_main" transform="translate(-320.000000, 0.000000)">
                <g id="facts" transform="translate(499.000000, 872.000000)">
                    <g id="Group-6" transform="translate(30.000000, 0.000000)">
                        <g id="wd" transform="translate(12.000000, 12.000000)">
                            <rect id="Rectangle" x="0" y="0" width="28" height="28"></rect>
                            <path d="M24.4076077,7.48364313 L22.6576077,3.98364313 C22.5093862,3.68722385 22.2064121,3.5 21.875,3.5 L6.125,3.5 C5.79358788,3.5 5.49061383,3.68722385 5.34239234,3.98364312 L3.59239234,7.48364312 C3.5316282,7.60515296 3.5,7.73914375 3.5,7.875 L3.5,22.75 C3.50110482,23.7160403 4.28395969,24.4988952 5.25,24.5 L22.75,24.5 C23.7160403,24.4988952 24.4988952,23.7160403 24.5,22.75 L24.5,7.875 C24.5,7.73914375 24.4683718,7.60515296 24.4076077,7.48364313 Z M18.3310466,17.0314178 L14.6187595,20.7437595 C14.6128314,20.7496877 14.6062623,20.7548141 14.600227,20.7605289 C14.5856473,20.7743102 14.5711213,20.7881395 14.5555802,20.8009036 C14.5482641,20.8069378 14.5404131,20.8121189 14.5329395,20.8178863 C14.5177189,20.8295817 14.502658,20.8413844 14.4866903,20.8521206 C14.4805478,20.8562331 14.4739798,20.8596511 14.4677312,20.863605 C14.4498397,20.87498 14.431842,20.8862456 14.4130973,20.8962895 C14.4084511,20.8988052 14.4035905,20.9007739 14.3988906,20.9031255 C14.3781695,20.9138059 14.3571805,20.9240598 14.335498,20.9330855 C14.3324005,20.9344209 14.3290897,20.9353288 14.3259386,20.9366106 C14.3027073,20.9459567 14.2792081,20.9546083 14.2550155,20.961978 C14.2518119,20.962993 14.2485,20.9635803 14.2452964,20.9644881 C14.2212634,20.9714881 14.1970172,20.9778931 14.1722339,20.9828631 C14.1650775,20.9843058 14.1577067,20.9848931 14.1504978,20.986175 C14.1296159,20.9898063 14.1087341,20.9934911 14.087372,20.9955736 C14.029274,21.0014842 13.970726,21.0014842 13.912628,20.9955736 C13.8912659,20.9934955 13.8703841,20.9898063 13.8495022,20.986175 C13.8422933,20.9848931 13.8349225,20.9843058 13.8277661,20.9828631 C13.8029861,20.9778964 13.7787398,20.9714881 13.7547036,20.9644881 C13.7515,20.9635803 13.7481881,20.962993 13.7449845,20.961978 C13.7207383,20.9546083 13.6970783,20.9458495 13.6737945,20.9365034 C13.6707506,20.9352752 13.6675459,20.9343673 13.6644977,20.9330855 C13.6428152,20.9240598 13.6218261,20.9138059 13.6010514,20.9031255 C13.5964052,20.9007192 13.5915445,20.8987997 13.5868983,20.8962895 C13.5681536,20.8862489 13.5501559,20.87498 13.5322644,20.863605 C13.5260158,20.8596533 13.5194478,20.8562353 13.5133053,20.8521206 C13.4973366,20.8413855 13.4822767,20.8295828 13.4670561,20.8178862 C13.4595792,20.8121189 13.4517283,20.8069378 13.4444155,20.8009036 C13.429302,20.7885136 13.4152025,20.7749478 13.4009433,20.7615964 C13.3944814,20.7555086 13.3875383,20.7500606 13.3812361,20.7437595 L9.66895344,17.0314178 C9.3272223,16.6897003 9.32721129,16.1356556 9.66892885,15.7939245 C10.0106464,15.4521933 10.564691,15.4521823 10.9064222,15.7938998 L13.125,18.0125313 L13.125,11.375 C13.125,10.8917508 13.5167508,10.5 14,10.5 C14.4832492,10.5 14.875,10.8917508 14.875,11.375 L14.875,18.0125313 L17.0935822,15.7938955 C17.3146435,15.572843 17.6368426,15.4865168 17.9388104,15.5674353 C18.2407781,15.6483537 18.4766383,15.8842233 18.5575447,16.1861943 C18.6384512,16.4881652 18.5521122,16.8103609 18.3310509,17.0314134 L18.3310466,17.0314178 Z M5.79078719,7 L6.66578719,5.25 L21.3342128,5.25 L22.2092128,7 L5.79078719,7 Z" id="Shape" fill="#7B50D6" fill-rule="nonzero"></path>
                        </g>
                    </g>
                </g>
            </g>
        </g>
    </g>
</svg>