<?xml version="1.0" encoding="UTF-8"?>
<svg width="20px" height="26px" viewBox="0 0 20 26" version="1.1" xmlns="http://www.w3.org/2000/svg" xmlns:xlink="http://www.w3.org/1999/xlink">
    <title>facts_ic/users</title>
    <g id="Page-1" stroke="none" stroke-width="1" fill="none" fill-rule="evenodd">
        <g id="320" transform="translate(-225.000000, -1062.000000)">
            <g id="01_main" transform="translate(-320.000000, 0.000000)">
                <g id="facts-copy-2" transform="translate(501.000000, 1049.000000)">
                    <g id="Group-4" transform="translate(28.000000, 0.000000)">
                        <g id="countr" transform="translate(12.000000, 12.000000)">
                            <rect id="Rectangle" x="0" y="0" width="28" height="28"></rect>
                            <path d="M13.9993591,1.74968281 C8.6862318,1.75598696 4.38066321,6.06155555 4.37435906,11.3746828 C4.37435906,19.6102791 13.1243591,25.8309822 13.4969177,26.091602 C13.7987211,26.3023766 14.1999971,26.3023766 14.5018005,26.091602 C14.8743591,25.8309822 23.6243591,19.6102791 23.6243591,11.3746828 C23.6180555,6.0615553 19.3124866,1.75598635 13.9993591,1.74968281 Z M14,7.875 C15.9329966,7.875 17.5,9.44200338 17.5,11.375 C17.5,13.3079966 15.9329966,14.875 14,14.875 C12.0670034,14.875 10.5,13.3079966 10.5,11.375 C10.5,10.4467342 10.8687141,9.55648016 11.5250971,8.90009711 C12.1814802,8.24371407 13.0717342,7.875 14,7.875 L14,7.875 Z" id="Shape" fill="#7B50D6" fill-rule="nonzero"></path>
                        </g>
                    </g>
                </g>
            </g>
        </g>
    </g>
</svg>