<?xml version="1.0" encoding="UTF-8"?>
<svg width="23px" height="24px" viewBox="0 0 23 24" version="1.1" xmlns="http://www.w3.org/2000/svg" xmlns:xlink="http://www.w3.org/1999/xlink">
    <title>facts_ic/users</title>
    <g id="Page-1" stroke="none" stroke-width="1" fill="none" fill-rule="evenodd">
        <g id="320" transform="translate(-75.000000, -886.000000)">
            <g id="01_main" transform="translate(-320.000000, 0.000000)">
                <g id="facts" transform="translate(356.000000, 872.000000)">
                    <g id="Group-5" transform="translate(24.000000, 0.000000)">
                        <g id="users" transform="translate(12.500000, 12.160959)">
                            <rect id="Rectangle" x="0" y="0" width="28" height="28"></rect>
                            <g id="Group" transform="translate(2.625000, 2.625000)" fill="#7B50D6" fill-rule="nonzero">
                                <circle id="Oval" cx="11.375" cy="10.5" r="4.8125"></circle>
                                <path d="M11.375,-7.77156117e-16 C5.09276097,-7.77156117e-16 7.77156117e-16,5.09276097 7.77156117e-16,11.375 C7.77156117e-16,17.657239 5.09276097,22.75 11.375,22.75 C17.657239,22.75 22.75,17.657239 22.75,11.375 C22.7428929,5.09570717 17.6542928,0.00710706862 11.375,-7.77156117e-16 Z M18.5672878,17.7636113 C17.8648748,16.7459615 16.9540035,15.8893863 15.895157,15.2507633 C13.3658304,17.6664121 9.38416957,17.6664121 6.85484297,15.2507633 C5.79599139,15.889389 4.88511202,16.7459634 4.18268594,17.7636113 C0.747203171,13.9005499 0.976980257,8.01355078 4.70311316,4.43001641 C8.42924605,0.846482047 14.3207277,0.846482047 18.0468606,4.43001641 C21.7729935,8.01355078 22.0027706,13.9005499 18.5672878,17.7636113 L18.5672878,17.7636113 Z" id="Shape"></path>
                            </g>
                        </g>
                    </g>
                </g>
            </g>
        </g>
    </g>
</svg>