<?xml version="1.0" encoding="UTF-8"?>
<svg width="130px" height="20px" viewBox="0 0 130 20" version="1.1" xmlns="http://www.w3.org/2000/svg" xmlns:xlink="http://www.w3.org/1999/xlink">
    <title>cap_bear_logo</title>
    <defs>
        <linearGradient x1="50%" y1="0.215799825%" x2="50%" y2="100%" id="linearGradient-1">
            <stop stop-color="#FF514F" offset="0%"></stop>
            <stop stop-color="#F55B51" offset="100%"></stop>
        </linearGradient>
    </defs>
    <g id="Page-1" stroke="none" stroke-width="1" fill="none" fill-rule="evenodd">
        <g id="480" transform="translate(-175.000000, -20.000000)">
            <g id="02_main" transform="translate(-803.000000, -543.000000)">
                <g id="cap_bear_logo" transform="translate(978.000000, 563.000000)">
                    <path d="M5.43138739,15.4965458 C7.78169685,15.4965458 9.71724581,14.1190751 10.5072658,12.0123551 L8.03845334,11.262849 C7.58419185,12.316209 6.59666687,12.9644305 5.43138739,12.9644305 C4.62161691,12.9644305 3.93034942,12.6808336 3.37733543,12.0933828 C2.82432144,11.5059321 2.54781445,10.7969398 2.54781445,9.92589211 C2.54781445,9.05484444 2.82432144,8.34585214 3.37733543,7.75840139 C3.93034942,7.17095063 4.62161691,6.88735371 5.43138739,6.88735371 C6.59666687,6.88735371 7.58419185,7.53557524 8.03845334,8.58893521 L10.5072658,7.83942908 C9.71724581,5.73270912 7.78169685,4.35523838 5.43138739,4.35523838 C3.87109792,4.35523838 2.58731545,4.88191837 1.54053897,5.95553527 C0.51351299,7.00889525 0,8.32559522 0,9.92589211 C0,11.526189 0.51351299,12.842889 1.54053897,13.9165059 C2.58731545,14.9698659 3.87109792,15.4965458 5.43138739,15.4965458 Z M16.6496712,15.4965458 C17.8149506,15.4965458 18.8617271,15.1116643 19.7702501,14.3621582 L19.7702501,15.192692 L22.2193121,15.192692 L22.2193121,4.65909222 L19.7702501,4.65909222 L19.7702501,5.48962605 C18.8617271,4.74011991 17.8149506,4.35523838 16.6496712,4.35523838 C15.2276352,4.35523838 14.0426052,4.88191837 13.0748307,5.95553527 C12.1268068,7.00889525 11.6527948,8.32559522 11.6527948,9.92589211 C11.6527948,11.526189 12.1268068,12.842889 13.0748307,13.9165059 C14.0426052,14.9698659 15.2276352,15.4965458 16.6496712,15.4965458 Z M16.9656792,12.9644305 C16.1954097,12.9644305 15.5238927,12.6808336 14.9906292,12.0933828 C14.4573657,11.5059321 14.2006092,10.7969398 14.2006092,9.92589211 C14.2006092,9.05484444 14.4573657,8.34585214 14.9906292,7.75840139 C15.5238927,7.17095063 16.1954097,6.88735371 16.9656792,6.88735371 C17.7359486,6.88735371 18.3877151,7.17095063 18.9209786,7.75840139 C19.4542421,8.34585214 19.7307491,9.05484444 19.7307491,9.92589211 C19.7307491,10.7969398 19.4542421,11.5059321 18.9209786,12.0933828 C18.3877151,12.6808336 17.7359486,12.9644305 16.9656792,12.9644305 Z M26.7816775,19.7504996 L26.7816775,14.3621582 C27.6902005,15.1116643 28.7172264,15.4965458 29.8825059,15.4965458 C31.3045419,15.4965458 32.4895719,14.9698659 33.4573463,13.9165059 C34.4251208,12.842889 34.8991328,11.526189 34.8991328,9.92589211 C34.8991328,8.32559522 34.4251208,7.00889525 33.4573463,5.95553527 C32.4895719,4.88191837 31.3045419,4.35523838 29.8825059,4.35523838 C28.7172264,4.35523838 27.6902005,4.74011991 26.7816775,5.48962605 L26.7816775,4.65909222 L24.312865,4.65909222 L24.312865,19.7504996 L26.7816775,19.7504996 Z M29.5664979,12.9644305 C28.7962284,12.9644305 28.1444619,12.6808336 27.6111985,12.0933828 C27.077935,11.5059321 26.8211785,10.7969398 26.8211785,9.92589211 C26.8211785,9.05484444 27.077935,8.34585214 27.6111985,7.75840139 C28.1444619,7.17095063 28.7962284,6.88735371 29.5664979,6.88735371 C30.3367674,6.88735371 30.9885339,7.17095063 31.5217974,7.75840139 C32.0550609,8.34585214 32.3315679,9.05484444 32.3315679,9.92589211 C32.3315679,10.7969398 32.0550609,11.5059321 31.5217974,12.0933828 C30.9885339,12.6808336 30.3367674,12.9644305 29.5664979,12.9644305 Z M37.8222068,3.72727377 C38.7504802,3.72727377 39.4022467,3.01828148 39.4022467,2.10671996 C39.4022467,1.19515844 38.7109792,0.506423067 37.8222068,0.506423067 C36.9334343,0.506423067 36.2619173,1.19515844 36.2619173,2.10671996 C36.2619173,3.01828148 36.9334343,3.72727377 37.8222068,3.72727377 Z M39.0664882,15.192692 L39.0664882,4.65909222 L36.5976758,4.65909222 L36.5976758,15.192692 L39.0664882,15.192692 Z M46.7889336,15.192692 L46.7889336,12.7821182 L45.5051511,12.7821182 C44.7743826,12.7821182 44.2411191,12.2351813 44.2411191,11.5059321 L44.2411191,6.86709679 L46.7889336,6.86709679 L46.7889336,4.65909222 L44.2411191,4.65909222 L44.2411191,2.5928861 L41.7723067,2.5928861 L41.7723067,4.65909222 L40.3107697,4.65909222 L40.3107697,6.86709679 L41.7723067,6.86709679 L41.7723067,11.8705567 C41.7723067,12.8226321 42.1080652,13.612652 42.7795822,14.2406166 C43.4510991,14.8685812 44.2806201,15.192692 45.2681451,15.192692 L46.7889336,15.192692 Z M52.931339,15.4965458 C54.0966184,15.4965458 55.1433949,15.1116643 56.0519179,14.3621582 L56.0519179,15.192692 L58.5009798,15.192692 L58.5009798,4.65909222 L56.0519179,4.65909222 L56.0519179,5.48962605 C55.1433949,4.74011991 54.0966184,4.35523838 52.931339,4.35523838 C51.509303,4.35523838 50.324273,4.88191837 49.3564985,5.95553527 C48.4084745,7.00889525 47.9344626,8.32559522 47.9344626,9.92589211 C47.9344626,11.526189 48.4084745,12.842889 49.3564985,13.9165059 C50.324273,14.9698659 51.509303,15.4965458 52.931339,15.4965458 Z M53.2473469,12.9644305 C52.4770775,12.9644305 51.8055605,12.6808336 51.272297,12.0933828 C50.7390335,11.5059321 50.482277,10.7969398 50.482277,9.92589211 C50.482277,9.05484444 50.7390335,8.34585214 51.272297,7.75840139 C51.8055605,7.17095063 52.4770775,6.88735371 53.2473469,6.88735371 C54.0176164,6.88735371 54.6693829,7.17095063 55.2026464,7.75840139 C55.7359099,8.34585214 56.0124169,9.05484444 56.0124169,9.92589211 C56.0124169,10.7969398 55.7359099,11.5059321 55.2026464,12.0933828 C54.6693829,12.6808336 54.0176164,12.9644305 53.2473469,12.9644305 Z M63.0633453,15.192692 L63.0633453,0 L60.5945328,0 L60.5945328,15.192692 L63.0633453,15.192692 Z" id="capital" fill="#000000" fill-rule="nonzero"></path>
                    <path d="M92.8470987,15.4965458 C94.2691346,15.4965458 95.4541646,14.9698659 96.4219391,13.9165059 C97.3897136,12.842889 97.8637256,11.526189 97.8637256,9.92589211 C97.8637256,8.32559522 97.3897136,7.00889525 96.4219391,5.95553527 C95.4541646,4.88191837 94.2691346,4.35523838 92.8470987,4.35523838 C91.6818192,4.35523838 90.6547932,4.74011991 89.7462702,5.48962605 L89.7462702,0 L87.2774578,0 L87.2774578,15.192692 L89.7462702,15.192692 L89.7462702,14.3621582 C90.6547932,15.1116643 91.6818192,15.4965458 92.8470987,15.4965458 Z M92.5310907,12.9644305 C91.7608212,12.9644305 91.1090547,12.6808336 90.5757912,12.0933828 C90.0425277,11.5059321 89.7857712,10.7969398 89.7857712,9.92589211 C89.7857712,9.05484444 90.0425277,8.34585214 90.5757912,7.75840139 C91.1090547,7.17095063 91.7608212,6.88735371 92.5310907,6.88735371 C93.3013602,6.88735371 93.9531266,7.17095063 94.4863901,7.75840139 C95.0196536,8.34585214 95.2961606,9.05484444 95.2961606,9.92589211 C95.2961606,10.7969398 95.0196536,11.5059321 94.4863901,12.0933828 C93.9531266,12.6808336 93.3013602,12.9644305 92.5310907,12.9644305 Z M104.736899,15.4965458 C106.810702,15.4965458 108.588247,14.4431859 109.536271,12.7618613 L107.14646,12.052869 C106.553945,12.8023751 105.744175,13.1669997 104.736899,13.1669997 C103.295113,13.1669997 102.110083,12.2351813 101.734823,10.8577106 L109.89178,10.8577106 C109.951031,10.4525721 109.970782,10.1487183 109.970782,9.92589211 C109.970782,8.34585214 109.457269,7.02915217 108.410492,5.95553527 C107.383466,4.88191837 106.099684,4.35523838 104.578895,4.35523838 C103.058107,4.35523838 101.774324,4.88191837 100.727548,5.95553527 C99.700522,7.00889525 99.187009,8.32559522 99.187009,9.92589211 C99.187009,11.526189 99.7202725,12.842889 100.767049,13.9165059 C101.833576,14.9698659 103.156859,15.4965458 104.736899,15.4965458 Z M107.422967,8.89278905 L101.754574,8.89278905 C102.129833,7.57608908 103.255612,6.68478448 104.539394,6.68478448 C105.882428,6.68478448 107.027957,7.57608908 107.422967,8.89278905 Z M116.113187,15.4965458 C117.278467,15.4965458 118.325243,15.1116643 119.233766,14.3621582 L119.233766,15.192692 L121.682828,15.192692 L121.682828,4.65909222 L119.233766,4.65909222 L119.233766,5.48962605 C118.325243,4.74011991 117.278467,4.35523838 116.113187,4.35523838 C114.691151,4.35523838 113.506121,4.88191837 112.538347,5.95553527 C111.590323,7.00889525 111.116311,8.32559522 111.116311,9.92589211 C111.116311,11.526189 111.590323,12.842889 112.538347,13.9165059 C113.506121,14.9698659 114.691151,15.4965458 116.113187,15.4965458 Z M116.429195,12.9644305 C115.658926,12.9644305 114.987409,12.6808336 114.454145,12.0933828 C113.920882,11.5059321 113.664125,10.7969398 113.664125,9.92589211 C113.664125,9.05484444 113.920882,8.34585214 114.454145,7.75840139 C114.987409,7.17095063 115.658926,6.88735371 116.429195,6.88735371 C117.199465,6.88735371 117.851231,7.17095063 118.384495,7.75840139 C118.917758,8.34585214 119.194265,9.05484444 119.194265,9.92589211 C119.194265,10.7969398 118.917758,11.5059321 118.384495,12.0933828 C117.851231,12.6808336 117.199465,12.9644305 116.429195,12.9644305 Z M126.245194,15.192692 L126.245194,9.39921212 C126.245194,8.00148446 127.252469,6.94812448 128.615253,6.94812448 C128.970762,6.94812448 129.306521,7.02915217 129.622529,7.17095063 L129.622529,4.35523838 C128.08199,4.35523838 126.956211,4.88191837 126.245194,5.95553527 L126.245194,4.65909222 L123.776381,4.65909222 L123.776381,15.192692 L126.245194,15.192692 Z" id="bear" fill="#000000" fill-rule="nonzero"></path>
                    <g id="Group-7-Copy" transform="translate(68.173082, 0.144692)">
                        <path d="M12.2813623,8.77608399 L10.0961367,12.1203519 C9.82260793,12.5388878 9.47005106,12.887757 9.0480017,13.1570454 C8.48317921,13.5177044 7.83136047,13.7082159 7.16321361,13.7082159 L7.16308298,13.7082159 C6.91763861,13.7082159 6.67141049,13.6823589 6.4310605,13.6311807 C5.51877552,13.4371858 4.73567866,12.9006185 4.22584929,12.1203519 L2.04062371,8.77608399 L0.393703742,11.2964096 C0.136633747,11.6896243 0,12.1478166 0,12.615923 C0,13.2875365 0.27548812,13.8955121 0.720788736,14.3356179 C1.16608935,14.7757236 1.78120246,15.0479595 2.4607137,15.0479595 L11.8611416,15.0479595 C12.3346573,15.0479595 12.7982454,14.9130473 13.1961291,14.658898 C13.7669604,14.2946217 14.1342778,13.7359486 14.2667316,13.1275711 C14.399316,12.5190596 14.296906,11.8605756 13.9281516,11.2964096 L12.2813623,8.77608399 Z" id="Fill-1" fill="#9E50EE"></path>
                        <path d="M6.64324774,12.0030305 C7.25888336,12.1340575 7.92507084,12.0327728 8.49590208,11.6683626 C8.78902458,11.4812004 9.03864895,11.2346876 9.22805519,10.9449011 L13.9282038,3.75154993 C14.2968276,3.18738391 14.3992376,2.52889995 14.2667838,1.92038842 C14.1341995,1.31201087 13.7670126,0.753337806 13.1961814,0.389061531 C12.7982976,0.135046151 12.3347095,-7.89491929e-15 11.8611939,-7.89491929e-15 L2.46063533,-7.89491929e-15 C1.78125471,-7.89491929e-15 1.16601098,0.272235892 0.720710361,0.712475627 C0.275409745,1.15258139 5.22499994e-05,1.76055702 5.22499994e-05,2.43217046 C5.22499994e-05,2.90027687 0.136685997,3.35846916 0.393625367,3.75154993 L5.09390465,10.9449011 C5.46252839,11.5089331 6.02761213,11.8720036 6.64324774,12.0030305" id="Fill-4" fill="url(#linearGradient-1)"></path>
                    </g>
                </g>
            </g>
        </g>
    </g>
</svg>