<?xml version="1.0" encoding="UTF-8"?>
<svg width="288px" height="173px" viewBox="0 0 288 173" version="1.1" xmlns="http://www.w3.org/2000/svg" xmlns:xlink="http://www.w3.org/1999/xlink">
    <title>Group 34</title>
    <defs>
        <linearGradient x1="0%" y1="32.3525006%" x2="100%" y2="67.6474994%" id="linearGradient-1">
            <stop stop-color="#F5F4FB" offset="0%"></stop>
            <stop stop-color="#E1DEF6" offset="100%"></stop>
        </linearGradient>
        <rect id="path-2" x="0" y="0.462169289" width="288" height="171.099631" rx="8"></rect>
        <rect id="path-4" x="11.1586716" y="68.4769294" width="97.2398524" height="85.0184502" rx="5.31365314"></rect>
        <filter x="-19.5%" y="-16.5%" width="139.1%" height="144.7%" filterUnits="objectBoundingBox" id="filter-5">
            <feMorphology radius="2.5" operator="erode" in="SourceAlpha" result="shadowSpreadOuter1"></feMorphology>
            <feOffset dx="0" dy="5" in="shadowSpreadOuter1" result="shadowOffsetOuter1"></feOffset>
            <feGaussianBlur stdDeviation="8" in="shadowOffsetOuter1" result="shadowBlurOuter1"></feGaussianBlur>
            <feColorMatrix values="0 0 0 0 0.391647666   0 0 0 0 0.375088859   0 0 0 0 0.595872962  0 0 0 0.341919799 0" type="matrix" in="shadowBlurOuter1"></feColorMatrix>
        </filter>
        <rect id="path-6" x="0" y="0" width="143.468635" height="37.7269373" rx="5.31365314"></rect>
        <filter x="-13.2%" y="-37.1%" width="126.5%" height="200.7%" filterUnits="objectBoundingBox" id="filter-7">
            <feMorphology radius="2.5" operator="erode" in="SourceAlpha" result="shadowSpreadOuter1"></feMorphology>
            <feOffset dx="0" dy="5" in="shadowSpreadOuter1" result="shadowOffsetOuter1"></feOffset>
            <feGaussianBlur stdDeviation="8" in="shadowOffsetOuter1" result="shadowBlurOuter1"></feGaussianBlur>
            <feColorMatrix values="0 0 0 0 0.391647666   0 0 0 0 0.375088859   0 0 0 0 0.595872962  0 0 0 0.341919799 0" type="matrix" in="shadowBlurOuter1"></feColorMatrix>
        </filter>
        <circle id="path-8" cx="22.8487085" cy="19.1291513" r="10.6273063"></circle>
        <filter x="-61.2%" y="-37.6%" width="222.3%" height="222.3%" filterUnits="objectBoundingBox" id="filter-9">
            <feMorphology radius="1.5" operator="erode" in="SourceAlpha" result="shadowSpreadOuter1"></feMorphology>
            <feOffset dx="0" dy="5" in="shadowSpreadOuter1" result="shadowOffsetOuter1"></feOffset>
            <feGaussianBlur stdDeviation="5" in="shadowOffsetOuter1" result="shadowBlurOuter1"></feGaussianBlur>
            <feColorMatrix values="0 0 0 0 0.391647666   0 0 0 0 0.375088859   0 0 0 0 0.595872962  0 0 0 0.341919799 0" type="matrix" in="shadowBlurOuter1"></feColorMatrix>
        </filter>
        <rect id="path-10" x="0" y="0" width="143.468635" height="37.7269373" rx="5.31365314"></rect>
        <filter x="-13.2%" y="-37.1%" width="126.5%" height="200.7%" filterUnits="objectBoundingBox" id="filter-11">
            <feMorphology radius="2.5" operator="erode" in="SourceAlpha" result="shadowSpreadOuter1"></feMorphology>
            <feOffset dx="0" dy="5" in="shadowSpreadOuter1" result="shadowOffsetOuter1"></feOffset>
            <feGaussianBlur stdDeviation="8" in="shadowOffsetOuter1" result="shadowBlurOuter1"></feGaussianBlur>
            <feColorMatrix values="0 0 0 0 0.391647666   0 0 0 0 0.375088859   0 0 0 0 0.595872962  0 0 0 0.341919799 0" type="matrix" in="shadowBlurOuter1"></feColorMatrix>
        </filter>
        <circle id="path-12" cx="22.8487085" cy="19.1291513" r="10.6273063"></circle>
        <filter x="-61.2%" y="-37.6%" width="222.3%" height="222.3%" filterUnits="objectBoundingBox" id="filter-13">
            <feMorphology radius="1.5" operator="erode" in="SourceAlpha" result="shadowSpreadOuter1"></feMorphology>
            <feOffset dx="0" dy="5" in="shadowSpreadOuter1" result="shadowOffsetOuter1"></feOffset>
            <feGaussianBlur stdDeviation="5" in="shadowOffsetOuter1" result="shadowBlurOuter1"></feGaussianBlur>
            <feColorMatrix values="0 0 0 0 0.391647666   0 0 0 0 0.375088859   0 0 0 0 0.595872962  0 0 0 0.341919799 0" type="matrix" in="shadowBlurOuter1"></feColorMatrix>
        </filter>
        <rect id="path-14" x="0" y="0" width="143.468635" height="37.7269373" rx="5.31365314"></rect>
        <filter x="-13.2%" y="-37.1%" width="126.5%" height="200.7%" filterUnits="objectBoundingBox" id="filter-15">
            <feMorphology radius="2.5" operator="erode" in="SourceAlpha" result="shadowSpreadOuter1"></feMorphology>
            <feOffset dx="0" dy="5" in="shadowSpreadOuter1" result="shadowOffsetOuter1"></feOffset>
            <feGaussianBlur stdDeviation="8" in="shadowOffsetOuter1" result="shadowBlurOuter1"></feGaussianBlur>
            <feColorMatrix values="0 0 0 0 0.391647666   0 0 0 0 0.375088859   0 0 0 0 0.595872962  0 0 0 0.341919799 0" type="matrix" in="shadowBlurOuter1"></feColorMatrix>
        </filter>
        <circle id="path-16" cx="22.8487085" cy="19.1291513" r="10.6273063"></circle>
        <filter x="-61.2%" y="-37.6%" width="222.3%" height="222.3%" filterUnits="objectBoundingBox" id="filter-17">
            <feMorphology radius="1.5" operator="erode" in="SourceAlpha" result="shadowSpreadOuter1"></feMorphology>
            <feOffset dx="0" dy="5" in="shadowSpreadOuter1" result="shadowOffsetOuter1"></feOffset>
            <feGaussianBlur stdDeviation="5" in="shadowOffsetOuter1" result="shadowBlurOuter1"></feGaussianBlur>
            <feColorMatrix values="0 0 0 0 0.391647666   0 0 0 0 0.375088859   0 0 0 0 0.595872962  0 0 0 0.341919799 0" type="matrix" in="shadowBlurOuter1"></feColorMatrix>
        </filter>
        <circle id="path-18" cx="27.896679" cy="36.8606933" r="16.7380074"></circle>
        <filter x="-56.8%" y="-41.8%" width="213.5%" height="213.5%" filterUnits="objectBoundingBox" id="filter-19">
            <feMorphology radius="2.5" operator="erode" in="SourceAlpha" result="shadowSpreadOuter1"></feMorphology>
            <feOffset dx="0" dy="5" in="shadowSpreadOuter1" result="shadowOffsetOuter1"></feOffset>
            <feGaussianBlur stdDeviation="8" in="shadowOffsetOuter1" result="shadowBlurOuter1"></feGaussianBlur>
            <feColorMatrix values="0 0 0 0 0.391647666   0 0 0 0 0.375088859   0 0 0 0 0.595872962  0 0 0 0.341919799 0" type="matrix" in="shadowBlurOuter1"></feColorMatrix>
        </filter>
    </defs>
    <g id="Page-1" stroke="none" stroke-width="1" fill="none" fill-rule="evenodd">
        <g id="320" transform="translate(-16.000000, -4488.000000)">
            <g id="04_toolbox" transform="translate(0.000000, 4178.000000)">
                <g id="Group-34" transform="translate(16.000000, 310.200000)">
                    <g id="Fill-4">
                        <mask id="mask-3" fill="white">
                            <use xlink:href="#path-2"></use>
                        </mask>
                        <use id="Mask" fill="url(#linearGradient-1)" xlink:href="#path-2"></use>
                        <path d="M160.32586,-111.055351 C167.157833,-111.055351 173.843911,-109.145816 179.582177,-105.568374 C187.937971,-100.361236 193.281276,-92.3592849 195.220605,-83.6692688 C197.171655,-74.916186 195.677145,-65.4397923 190.245027,-57.3211955 L190.245027,-57.3211955 L138.278832,20.3444148 C135.519808,24.4666001 131.88763,27.9780063 127.616411,30.6412379 C119.387068,35.7714603 109.783483,37.2089905 100.905469,35.3638018 C91.9678591,33.5062268 83.7868268,28.3330157 78.4397965,20.3434846 L78.4397965,20.3434846 L26.4736274,-57.3199282 C22.6897737,-62.9728586 20.6855451,-69.563727 20.6855451,-76.294045 C20.6855451,-85.9266697 24.7055236,-94.6612247 31.2500066,-100.97759 C37.6846068,-107.189794 46.568347,-111.055351 56.3919467,-111.055351 L56.3919467,-111.055351 Z" stroke="#B5B0EC" stroke-width="17.00369" opacity="0.401506696" mask="url(#mask-3)"></path>
                        <path d="M229.934716,124.870849 C236.766689,124.870849 243.452767,126.780383 249.191033,130.357825 C257.546827,135.564963 262.890133,143.566914 264.829462,152.25693 C266.780511,161.010013 265.286001,170.486407 259.853883,178.605004 L259.853883,178.605004 L207.887688,256.270614 C205.128664,260.392799 201.496486,263.904206 197.225267,266.567437 C188.995924,271.69766 179.392339,273.13519 170.514325,271.290001 C161.576715,269.432426 153.395683,264.259215 148.048653,256.269684 L148.048653,256.269684 L96.0824835,178.606271 C92.2986298,172.953341 90.2944012,166.362472 90.2944012,159.632154 C90.2944012,149.99953 94.3143797,141.264975 100.858863,134.948609 C107.293463,128.736405 116.177203,124.870849 126.000803,124.870849 L126.000803,124.870849 Z" id="Fill-4-Copy" stroke="#B5B0EC" stroke-width="17.00369" opacity="0.401506696" mask="url(#mask-3)"></path>
                        <path d="M373.934716,-69.6088561 C380.766689,-69.6088561 387.452767,-67.6993218 393.191033,-64.1218793 C401.546827,-58.9147418 406.890133,-50.9127904 408.829462,-42.2227744 C410.780511,-33.4696916 409.286001,-23.9932978 403.853883,-15.874701 L403.853883,-15.874701 L351.887688,61.7909093 C349.128664,65.9130946 345.496486,69.4245008 341.225267,72.0877324 C332.995924,77.2179547 323.392339,78.6554849 314.514325,76.8102963 C305.576715,74.9527212 297.395683,69.7795102 292.048653,61.7899791 L292.048653,61.7899791 L240.082483,-15.8734337 C236.29863,-21.5263641 234.294401,-28.1172326 234.294401,-34.8475505 C234.294401,-44.4801752 238.31438,-53.2147302 244.858863,-59.5310959 C251.293463,-65.7432994 260.177203,-69.6088561 270.000803,-69.6088561 L270.000803,-69.6088561 Z" id="Fill-4-Copy-2" stroke="#B5B0EC" stroke-width="17.00369" opacity="0.401506696" mask="url(#mask-3)"></path>
                    </g>
                    <g id="Rectangle">
                        <use fill="black" fill-opacity="1" filter="url(#filter-5)" xlink:href="#path-4"></use>
                        <use fill="#FDFDFF" fill-rule="evenodd" xlink:href="#path-4"></use>
                    </g>
                    <g id="Group-31" transform="translate(124.870849, 19.059955)">
                        <g id="Group-30">
                            <g id="Rectangle-Copy-8">
                                <use fill="black" fill-opacity="1" filter="url(#filter-7)" xlink:href="#path-6"></use>
                                <use fill="#FDFDFF" fill-rule="evenodd" xlink:href="#path-6"></use>
                            </g>
                            <g id="Oval-Copy-10">
                                <use fill="black" fill-opacity="1" filter="url(#filter-9)" xlink:href="#path-8"></use>
                                <use fill="#FFFFFF" fill-rule="evenodd" xlink:href="#path-8"></use>
                            </g>
                            <g id="bmw-2" transform="translate(16.472325, 12.752768)">
                                <path d="M6.36977576,0 C9.87812022,0 12.7395225,2.86140233 12.7395225,6.36974678 C12.7395225,9.87812022 9.87812022,12.7394936 6.36977576,12.7394936 C2.86143131,12.7394936 0,9.87812022 0,6.36974678 C0,2.86140233 2.86143131,0 6.36977576,0 Z" id="Path" fill="#000000" fill-rule="nonzero"></path>
                                <path d="M2.66900943,4.45941111 L1.1659508,3.16662824 L1.72878262,2.51223734 C1.84332567,2.37908684 1.95053587,2.28555688 2.04977559,2.23106778 C2.14965295,2.17649173 2.25068966,2.15385557 2.35314655,2.16286946 C2.45519768,2.17159351 2.54127887,2.20535936 2.61057857,2.26494957 C2.67460326,2.32001834 2.71767284,2.3923903 2.73943949,2.48174663 C2.76161192,2.57069718 2.75468485,2.67144405 2.71952778,2.78311772 C2.83688223,2.7004566 2.95188901,2.65880722 3.06477999,2.6570682 C3.17804776,2.65561903 3.27841784,2.6925151 3.36591922,2.76775643 C3.4350709,2.82668496 3.48739879,2.90286189 3.51759021,2.98855322 C3.54842872,3.07509814 3.55828313,3.15778825 3.54755922,3.23682643 C3.5368353,3.31586461 3.50648951,3.40067051 3.4576522,3.49141805 C3.40878591,3.58219457 3.33655887,3.68320229 3.24088413,3.79444121 L2.66900943,4.45941111 Z M1.99630092,3.47895512 L2.320627,3.10187896 C2.40827329,2.99994376 2.46551583,2.92136932 2.49238359,2.86679327 C2.52756964,2.79540675 2.54081513,2.72975898 2.53130852,2.67002386 C2.52177293,2.61031772 2.4909634,2.55768356 2.43844518,2.51249819 C2.38876735,2.46974743 2.33280009,2.44563311 2.271239,2.44073488 C2.20904028,2.4359526 2.14889938,2.45342968 2.09093225,2.4925575 C2.03261732,2.53209108 1.94949246,2.61452033 1.84155767,2.73999018 L1.54201254,3.08828566 L1.99630092,3.47895512 L1.99630092,3.47895512 Z M2.69025438,4.07581365 L3.06347573,3.64190071 C3.12770331,3.56721007 3.17030915,3.51272097 3.19158309,3.47872325 C3.22891392,3.41835049 3.25331808,3.36232526 3.26479557,3.31009688 C3.27664985,3.25810036 3.27380946,3.20479959 3.25731781,3.15036846 C3.24013055,3.09602428 3.20824863,3.04814343 3.16030982,3.00689982 C3.10434256,2.95872913 3.04136127,2.93351343 2.97107613,2.93102085 C2.90116778,2.92878911 2.83230283,2.95006305 2.76451027,2.99492961 C2.69747129,3.03962226 2.61573764,3.11764601 2.5204107,3.22847916 L2.1737383,3.63155358 L2.69025438,4.07581365 L2.69025438,4.07581365 Z M5.16808823,2.23860351 L5.16808823,0.538427663 L5.61631904,0.538427663 L6.14837032,1.74220201 C6.19758441,1.85425247 6.23372692,1.93815989 6.25572544,1.99398223 C6.2813759,1.93221826 6.32117033,1.8411519 6.37560146,1.7212469 L6.91391319,0.538427663 L7.31449502,0.538427663 L7.31449502,2.23860351 L7.02755774,2.23860351 L7.02755774,0.815510532 L6.37403635,2.23860351 L6.10541668,2.23860351 L5.45502551,0.79133824 L5.45502551,2.23860351 L5.16808823,2.23860351 Z M9.23404747,3.23137752 L10.2743545,1.82080544 L10.416316,1.99601108 L9.71178355,2.89250169 C9.63927029,2.98568856 9.56402525,3.07671718 9.4861465,3.16546889 C9.65375845,3.08440187 9.75036067,3.03799918 9.77702555,3.02631881 L10.8658221,2.55072751 L11.0328834,2.7568876 L10.5155268,3.48225925 C10.3876223,3.66253701 10.2591092,3.8219756 10.1304801,3.960575 C10.2267925,3.90941901 10.3400603,3.85348073 10.469182,3.79261525 L11.4799548,3.30856075 L11.6192498,3.48043328 L10.0145169,4.19447236 L9.88107654,4.02975876 L10.6647052,2.94420837 C10.730295,2.85322896 10.7708719,2.79795731 10.7864941,2.77833543 C10.7150206,2.81378233 10.6532856,2.84291081 10.6011152,2.86577885 L9.37528437,3.4056267 L9.23404747,3.23137752 Z" id="Shape" fill="#FFFFFF" fill-rule="nonzero"></path>
                                <path d="M10.13248,6.432844 C10.13248,8.47056243 8.47056243,10.13248 6.432844,10.13248 L6.432844,6.432844 L10.13248,6.432844 Z" id="Path" fill="#00ACEC"></path>
                                <path d="M10.13248,6.30667855 C10.13248,4.2689891 8.47056243,2.60704257 6.432844,2.60704257 L6.432844,6.30667855 L10.13248,6.30667855 Z" id="Path" fill="#FFFFFF"></path>
                                <path d="M2.60707156,6.30667855 C2.60707156,4.2689891 4.2689891,2.60704257 6.30670753,2.60704257 L6.30670753,6.30667855 L2.60707156,6.30667855 Z" id="Path" fill="#00ACEC"></path>
                                <path d="M2.60707156,6.432844 C2.60707156,8.47056243 4.2689891,10.13248 6.30670753,10.13248 L6.30670753,6.432844 L2.60707156,6.432844 Z" id="Path" fill="#FFFFFF"></path>
                            </g>
                            <g id="Group-29" transform="translate(43.040590, 12.752768)">
                                <g id="Group-12">
                                    <rect id="Rectangle" fill="#B5B0EC" x="0" y="0" width="36.6642066" height="4.25092251" rx="1.06273063"></rect>
                                    <rect id="Rectangle-Copy-5" fill="#E8E8F9" x="0" y="8.50184502" width="49.9483395" height="4.25092251" rx="1.06273063"></rect>
                                </g>
                                <g id="Group-28" transform="translate(69.608856, 1.594096)">
                                    <g id="gear" transform="translate(12.221402, 0.000000)">
                                        <rect id="Rectangle" x="0" y="0" width="9.56457565" height="9.56457565"></rect>
                                        <circle id="Oval" stroke="#685FD7" stroke-width="0.597785978" stroke-linecap="round" stroke-linejoin="round" cx="4.78232444" cy="4.78230613" r="2.09225092"></circle>
                                        <path d="M8.07014806,4.4834322 L8.45523917,3.90581029 C8.50604409,3.8304715 8.5207067,3.73643851 8.49525123,3.64920841 C8.42260089,3.40998456 8.32685299,3.17839477 8.20936009,2.95771052 C8.16578447,2.8781709 8.089,2.82221476 7.99993661,2.80509464 L7.3185383,2.6688028 L6.89584645,2.24611207 L6.75955573,1.56468761 C6.74243539,1.47561757 6.68647404,1.39882783 6.60692715,1.3552518 C6.3862309,1.23777719 6.15463321,1.14204388 5.91540422,1.06940362 C5.82817607,1.0439463 5.73414414,1.05860573 5.65880459,1.10940708 L5.08121817,1.49446494 L4.4834322,1.49446494 L3.90584466,1.10940708 C3.83050505,1.05860588 3.73647319,1.04394646 3.64924503,1.06940362 C3.41001815,1.1420435 3.17842238,1.23777579 2.9577277,1.35524881 C2.87817761,1.3988265 2.82221515,1.47562053 2.80509725,1.56469471 L2.66883941,2.24607583 L2.24611207,2.66880205 L1.56472497,2.80505989 C1.47565542,2.82217652 1.39886476,2.87813474 1.35528729,2.95767951 C1.23779419,3.1783755 1.14204633,3.40997658 1.06939615,3.6492114 C1.0439419,3.73643895 1.05860392,3.83046895 1.10940671,3.9058058 L1.49446494,4.48339483 L1.49446494,5.08118081 L1.10940484,5.65877096 C1.05860532,5.73410898 1.04394584,5.82813823 1.06940101,5.91536462 C1.14203079,6.15460086 1.2377632,6.38620365 1.35524545,6.60690025 C1.39882487,6.6864416 1.47561323,6.74239812 1.56468014,6.75951762 L2.24611207,6.89581021 L2.66880205,7.31849982 L2.80506325,7.99992726 C2.82217959,8.08899667 2.87813531,8.16578831 2.95767764,8.2093698 C3.17836208,8.32685848 3.40995573,8.42259346 3.6491845,8.49522134 C3.73640667,8.52067143 3.83042957,8.50601112 3.90576321,8.45521489 L4.48339483,8.07014806 L5.08118081,8.07014806 L5.6588031,8.45523955 C5.73414227,8.50604181 5.82817451,8.52070155 5.91540273,8.49524376 C6.15462453,8.4226107 6.38621385,8.32687993 6.60689913,8.2094038 C6.68644042,8.1658245 6.74239695,8.08903628 6.7595165,7.99996948 L6.89580909,7.31853718 L7.3184987,6.89581096 L7.99992315,6.75955013 C8.08899264,6.74243362 8.16578338,6.68647572 8.20936121,6.60693126 C8.32685265,6.3862498 8.42259954,6.15466304 8.49524936,5.91544233 C8.52070483,5.82821223 8.50604222,5.73417924 8.45523731,5.65884046 L8.07014806,5.08121817 L8.07014806,4.4834322 Z" id="Path" stroke="#685FD7" stroke-width="0.597785978" stroke-linecap="round" stroke-linejoin="round"></path>
                                    </g>
                                    <g id="trash">
                                        <rect id="Rectangle" x="0" y="0" width="9.56457565" height="9.56457565"></rect>
                                        <line x1="8.06996462" y1="2.12356854" x2="1.49431886" y2="2.12357354" id="Path" stroke="#685FD7" stroke-width="0.597785978" stroke-linecap="round" stroke-linejoin="round"></line>
                                        <line x1="3.91692804" y1="3.88560886" x2="3.91692804" y2="6.27675277" id="Path" stroke="#685FD7" stroke-width="0.597785978" stroke-linecap="round" stroke-linejoin="round"></line>
                                        <line x1="5.71028598" y1="3.88560886" x2="5.71028598" y2="6.27675277" id="Path" stroke="#685FD7" stroke-width="0.597785978" stroke-linecap="round" stroke-linejoin="round"></line>
                                        <path d="M7.47217864,2.09225092 L7.47217864,7.77121771 C7.47217864,7.93629175 7.33835969,8.0701107 7.17328565,8.0701107 L2.39099783,8.0701107 C2.22592379,8.0701107 2.09210484,7.93629175 2.09210484,7.77121771 L2.09210484,2.09225092" id="Path" stroke="#685FD7" stroke-width="0.597785978" stroke-linecap="round" stroke-linejoin="round"></path>
                                        <path d="M6.27675277,2.09225092 L6.27675277,1.49446494 C6.27675277,1.16431687 6.00911487,0.896678967 5.67896679,0.896678967 L3.88560886,0.896678967 C3.55546078,0.896678967 3.28782288,1.16431687 3.28782288,1.49446494 L3.28782288,2.09225092" id="Path" stroke="#685FD7" stroke-width="0.597785978" stroke-linecap="round" stroke-linejoin="round"></path>
                                    </g>
                                </g>
                            </g>
                        </g>
                        <g id="Group-30-Copy" transform="translate(0.000000, 48.354244)">
                            <g id="Rectangle-Copy-8">
                                <use fill="black" fill-opacity="1" filter="url(#filter-11)" xlink:href="#path-10"></use>
                                <use fill="#FDFDFF" fill-rule="evenodd" xlink:href="#path-10"></use>
                            </g>
                            <g id="Oval-Copy-10">
                                <use fill="black" fill-opacity="1" filter="url(#filter-13)" xlink:href="#path-12"></use>
                                <use fill="#FFFFFF" fill-rule="evenodd" xlink:href="#path-12"></use>
                            </g>
                            <g id="microsoft-5" transform="translate(17.535055, 13.815498)" fill-rule="nonzero">
                                <polygon id="Path" fill="#F1511B" points="5.04967076 5.04967076 -2.13320133e-13 5.04967076 -2.13320133e-13 4.31045106e-13 5.04967076 4.31045106e-13"></polygon>
                                <polygon id="Path" fill="#80CC28" points="10.6256057 5.04967076 5.57550987 5.04967076 5.57550987 4.31045106e-13 10.6251806 4.31045106e-13 10.6251806 5.04967076"></polygon>
                                <polygon id="Path" fill="#00ADEF" points="5.04967076 10.6273061 -2.13320133e-13 10.6273061 -2.13320133e-13 5.57763533 5.04967076 5.57763533"></polygon>
                                <polygon id="Path" fill="#FBBC09" points="10.6256057 10.6273061 5.57550987 10.6273061 5.57550987 5.57763533 10.6251806 5.57763533 10.6251806 10.6273061"></polygon>
                            </g>
                            <g id="Group-29" transform="translate(43.040590, 12.752768)">
                                <g id="Group-12">
                                    <rect id="Rectangle" fill="#B5B0EC" x="0" y="0" width="36.6642066" height="4.25092251" rx="1.06273063"></rect>
                                    <rect id="Rectangle-Copy-5" fill="#E8E8F9" x="0" y="8.50184502" width="49.9483395" height="4.25092251" rx="1.06273063"></rect>
                                </g>
                                <g id="Group-28" transform="translate(69.608856, 1.594096)">
                                    <g id="gear" transform="translate(12.221402, 0.000000)">
                                        <rect id="Rectangle" x="0" y="0" width="9.56457565" height="9.56457565"></rect>
                                        <circle id="Oval" stroke="#685FD7" stroke-width="0.597785978" stroke-linecap="round" stroke-linejoin="round" cx="4.78232444" cy="4.78230613" r="2.09225092"></circle>
                                        <path d="M8.07014806,4.4834322 L8.45523917,3.90581029 C8.50604409,3.8304715 8.5207067,3.73643851 8.49525123,3.64920841 C8.42260089,3.40998456 8.32685299,3.17839477 8.20936009,2.95771052 C8.16578447,2.8781709 8.089,2.82221476 7.99993661,2.80509464 L7.3185383,2.6688028 L6.89584645,2.24611207 L6.75955573,1.56468761 C6.74243539,1.47561757 6.68647404,1.39882783 6.60692715,1.3552518 C6.3862309,1.23777719 6.15463321,1.14204388 5.91540422,1.06940362 C5.82817607,1.0439463 5.73414414,1.05860573 5.65880459,1.10940708 L5.08121817,1.49446494 L4.4834322,1.49446494 L3.90584466,1.10940708 C3.83050505,1.05860588 3.73647319,1.04394646 3.64924503,1.06940362 C3.41001815,1.1420435 3.17842238,1.23777579 2.9577277,1.35524881 C2.87817761,1.3988265 2.82221515,1.47562053 2.80509725,1.56469471 L2.66883941,2.24607583 L2.24611207,2.66880205 L1.56472497,2.80505989 C1.47565542,2.82217652 1.39886476,2.87813474 1.35528729,2.95767951 C1.23779419,3.1783755 1.14204633,3.40997658 1.06939615,3.6492114 C1.0439419,3.73643895 1.05860392,3.83046895 1.10940671,3.9058058 L1.49446494,4.48339483 L1.49446494,5.08118081 L1.10940484,5.65877096 C1.05860532,5.73410898 1.04394584,5.82813823 1.06940101,5.91536462 C1.14203079,6.15460086 1.2377632,6.38620365 1.35524545,6.60690025 C1.39882487,6.6864416 1.47561323,6.74239812 1.56468014,6.75951762 L2.24611207,6.89581021 L2.66880205,7.31849982 L2.80506325,7.99992726 C2.82217959,8.08899667 2.87813531,8.16578831 2.95767764,8.2093698 C3.17836208,8.32685848 3.40995573,8.42259346 3.6491845,8.49522134 C3.73640667,8.52067143 3.83042957,8.50601112 3.90576321,8.45521489 L4.48339483,8.07014806 L5.08118081,8.07014806 L5.6588031,8.45523955 C5.73414227,8.50604181 5.82817451,8.52070155 5.91540273,8.49524376 C6.15462453,8.4226107 6.38621385,8.32687993 6.60689913,8.2094038 C6.68644042,8.1658245 6.74239695,8.08903628 6.7595165,7.99996948 L6.89580909,7.31853718 L7.3184987,6.89581096 L7.99992315,6.75955013 C8.08899264,6.74243362 8.16578338,6.68647572 8.20936121,6.60693126 C8.32685265,6.3862498 8.42259954,6.15466304 8.49524936,5.91544233 C8.52070483,5.82821223 8.50604222,5.73417924 8.45523731,5.65884046 L8.07014806,5.08121817 L8.07014806,4.4834322 Z" id="Path" stroke="#685FD7" stroke-width="0.597785978" stroke-linecap="round" stroke-linejoin="round"></path>
                                    </g>
                                    <g id="trash">
                                        <rect id="Rectangle" x="0" y="0" width="9.56457565" height="9.56457565"></rect>
                                        <line x1="8.06996462" y1="2.12356854" x2="1.49431886" y2="2.12357354" id="Path" stroke="#685FD7" stroke-width="0.597785978" stroke-linecap="round" stroke-linejoin="round"></line>
                                        <line x1="3.91692804" y1="3.88560886" x2="3.91692804" y2="6.27675277" id="Path" stroke="#685FD7" stroke-width="0.597785978" stroke-linecap="round" stroke-linejoin="round"></line>
                                        <line x1="5.71028598" y1="3.88560886" x2="5.71028598" y2="6.27675277" id="Path" stroke="#685FD7" stroke-width="0.597785978" stroke-linecap="round" stroke-linejoin="round"></line>
                                        <path d="M7.47217864,2.09225092 L7.47217864,7.77121771 C7.47217864,7.93629175 7.33835969,8.0701107 7.17328565,8.0701107 L2.39099783,8.0701107 C2.22592379,8.0701107 2.09210484,7.93629175 2.09210484,7.77121771 L2.09210484,2.09225092" id="Path" stroke="#685FD7" stroke-width="0.597785978" stroke-linecap="round" stroke-linejoin="round"></path>
                                        <path d="M6.27675277,2.09225092 L6.27675277,1.49446494 C6.27675277,1.16431687 6.00911487,0.896678967 5.67896679,0.896678967 L3.88560886,0.896678967 C3.55546078,0.896678967 3.28782288,1.16431687 3.28782288,1.49446494 L3.28782288,2.09225092" id="Path" stroke="#685FD7" stroke-width="0.597785978" stroke-linecap="round" stroke-linejoin="round"></path>
                                    </g>
                                </g>
                            </g>
                        </g>
                        <g id="Group-30-Copy-2" transform="translate(0.000000, 96.708487)">
                            <g id="Rectangle-Copy-8">
                                <use fill="black" fill-opacity="1" filter="url(#filter-15)" xlink:href="#path-14"></use>
                                <use fill="#FDFDFF" fill-rule="evenodd" xlink:href="#path-14"></use>
                            </g>
                            <g id="Oval-Copy-10">
                                <use fill="black" fill-opacity="1" filter="url(#filter-17)" xlink:href="#path-16"></use>
                                <use fill="#E31937" fill-rule="evenodd" xlink:href="#path-16"></use>
                            </g>
                            <g id="tesla" transform="translate(16.472325, 13.284133)" fill="#FFFFFF" fill-rule="nonzero">
                                <path d="M6.29489675,12.0181046 L8.05133467,2.55166292 C9.72543874,2.55166292 10.2535039,2.72759386 10.3297975,3.44569386 C10.3297975,3.44569386 11.4529138,3.04439292 12.019299,2.22936009 C9.80891125,1.24779068 7.58797805,1.20352327 7.58797805,1.20352327 L6.29202524,2.71620674 L6.29494627,2.71601696 L4.99894394,1.20328604 C4.99894394,1.20328604 2.77796122,1.2476009 0.567870525,2.2291703 C1.13381019,3.04420314 2.25732247,3.44550408 2.25732247,3.44550408 C2.33401222,2.72735663 2.86143373,2.55142569 4.52434875,2.55028698 L6.29489675,12.0181046" id="Shape"></path>
                                <path d="M6.29420363,0.766590141 C8.08099068,0.753494957 10.1261167,1.03148293 12.2198113,1.90596599 C12.4996373,1.42329461 12.5715741,1.20997597 12.5715741,1.20997597 C10.2828628,0.342230283 8.13956006,0.0452637861 6.29395609,0.0378147145 C4.44840163,0.0452637861 2.30519787,0.342277729 0.0168331281,1.20997597 C0.0168331281,1.20997597 0.118921099,1.47273367 0.368348448,1.90596599 C2.46159743,1.03148293 4.50716904,0.753494957 6.2940056,0.766590141 L6.29420363,0.766590141" id="Shape"></path>
                            </g>
                            <g id="Group-29" transform="translate(43.040590, 12.752768)">
                                <g id="Group-12">
                                    <rect id="Rectangle" fill="#B5B0EC" x="0" y="0" width="36.6642066" height="4.25092251" rx="1.06273063"></rect>
                                    <rect id="Rectangle-Copy-5" fill="#E8E8F9" x="0" y="8.50184502" width="49.9483395" height="4.25092251" rx="1.06273063"></rect>
                                </g>
                                <g id="Group-28" transform="translate(69.608856, 1.594096)">
                                    <g id="gear" transform="translate(12.221402, 0.000000)">
                                        <rect id="Rectangle" x="0" y="0" width="9.56457565" height="9.56457565"></rect>
                                        <circle id="Oval" stroke="#685FD7" stroke-width="0.597785978" stroke-linecap="round" stroke-linejoin="round" cx="4.78232444" cy="4.78230613" r="2.09225092"></circle>
                                        <path d="M8.07014806,4.4834322 L8.45523917,3.90581029 C8.50604409,3.8304715 8.5207067,3.73643851 8.49525123,3.64920841 C8.42260089,3.40998456 8.32685299,3.17839477 8.20936009,2.95771052 C8.16578447,2.8781709 8.089,2.82221476 7.99993661,2.80509464 L7.3185383,2.6688028 L6.89584645,2.24611207 L6.75955573,1.56468761 C6.74243539,1.47561757 6.68647404,1.39882783 6.60692715,1.3552518 C6.3862309,1.23777719 6.15463321,1.14204388 5.91540422,1.06940362 C5.82817607,1.0439463 5.73414414,1.05860573 5.65880459,1.10940708 L5.08121817,1.49446494 L4.4834322,1.49446494 L3.90584466,1.10940708 C3.83050505,1.05860588 3.73647319,1.04394646 3.64924503,1.06940362 C3.41001815,1.1420435 3.17842238,1.23777579 2.9577277,1.35524881 C2.87817761,1.3988265 2.82221515,1.47562053 2.80509725,1.56469471 L2.66883941,2.24607583 L2.24611207,2.66880205 L1.56472497,2.80505989 C1.47565542,2.82217652 1.39886476,2.87813474 1.35528729,2.95767951 C1.23779419,3.1783755 1.14204633,3.40997658 1.06939615,3.6492114 C1.0439419,3.73643895 1.05860392,3.83046895 1.10940671,3.9058058 L1.49446494,4.48339483 L1.49446494,5.08118081 L1.10940484,5.65877096 C1.05860532,5.73410898 1.04394584,5.82813823 1.06940101,5.91536462 C1.14203079,6.15460086 1.2377632,6.38620365 1.35524545,6.60690025 C1.39882487,6.6864416 1.47561323,6.74239812 1.56468014,6.75951762 L2.24611207,6.89581021 L2.66880205,7.31849982 L2.80506325,7.99992726 C2.82217959,8.08899667 2.87813531,8.16578831 2.95767764,8.2093698 C3.17836208,8.32685848 3.40995573,8.42259346 3.6491845,8.49522134 C3.73640667,8.52067143 3.83042957,8.50601112 3.90576321,8.45521489 L4.48339483,8.07014806 L5.08118081,8.07014806 L5.6588031,8.45523955 C5.73414227,8.50604181 5.82817451,8.52070155 5.91540273,8.49524376 C6.15462453,8.4226107 6.38621385,8.32687993 6.60689913,8.2094038 C6.68644042,8.1658245 6.74239695,8.08903628 6.7595165,7.99996948 L6.89580909,7.31853718 L7.3184987,6.89581096 L7.99992315,6.75955013 C8.08899264,6.74243362 8.16578338,6.68647572 8.20936121,6.60693126 C8.32685265,6.3862498 8.42259954,6.15466304 8.49524936,5.91544233 C8.52070483,5.82821223 8.50604222,5.73417924 8.45523731,5.65884046 L8.07014806,5.08121817 L8.07014806,4.4834322 Z" id="Path" stroke="#685FD7" stroke-width="0.597785978" stroke-linecap="round" stroke-linejoin="round"></path>
                                    </g>
                                    <g id="trash">
                                        <rect id="Rectangle" x="0" y="0" width="9.56457565" height="9.56457565"></rect>
                                        <line x1="8.06996462" y1="2.12356854" x2="1.49431886" y2="2.12357354" id="Path" stroke="#685FD7" stroke-width="0.597785978" stroke-linecap="round" stroke-linejoin="round"></line>
                                        <line x1="3.91692804" y1="3.88560886" x2="3.91692804" y2="6.27675277" id="Path" stroke="#685FD7" stroke-width="0.597785978" stroke-linecap="round" stroke-linejoin="round"></line>
                                        <line x1="5.71028598" y1="3.88560886" x2="5.71028598" y2="6.27675277" id="Path" stroke="#685FD7" stroke-width="0.597785978" stroke-linecap="round" stroke-linejoin="round"></line>
                                        <path d="M7.47217864,2.09225092 L7.47217864,7.77121771 C7.47217864,7.93629175 7.33835969,8.0701107 7.17328565,8.0701107 L2.39099783,8.0701107 C2.22592379,8.0701107 2.09210484,7.93629175 2.09210484,7.77121771 L2.09210484,2.09225092" id="Path" stroke="#685FD7" stroke-width="0.597785978" stroke-linecap="round" stroke-linejoin="round"></path>
                                        <path d="M6.27675277,2.09225092 L6.27675277,1.49446494 C6.27675277,1.16431687 6.00911487,0.896678967 5.67896679,0.896678967 L3.88560886,0.896678967 C3.55546078,0.896678967 3.28782288,1.16431687 3.28782288,1.49446494 L3.28782288,2.09225092" id="Path" stroke="#685FD7" stroke-width="0.597785978" stroke-linecap="round" stroke-linejoin="round"></path>
                                    </g>
                                </g>
                            </g>
                        </g>
                    </g>
                    <g id="Oval">
                        <use fill="black" fill-opacity="1" filter="url(#filter-19)" xlink:href="#path-18"></use>
                        <use fill="#FDFDFF" fill-rule="evenodd" xlink:href="#path-18"></use>
                    </g>
                    <g id="Group-26" transform="translate(20.723247, 80.166966)">
                        <g id="Group-22" transform="translate(0.000000, 2.125461)">
                            <rect id="Rectangle" fill="#C3BDED" opacity="0.701148624" x="0" y="0" width="12.7527675" height="2.12546125" rx="1.06273063"></rect>
                            <rect id="Rectangle-Copy-5" fill="#E8E5FB" x="0" y="4.25092251" width="9.56457565" height="2.12546125" rx="1.06273063"></rect>
                        </g>
                        <g id="Group-24" transform="translate(36.664207, 1.062731)">
                            <rect id="Rectangle-Copy-6" fill="#B5B0EC" x="0" y="0" width="20.1918819" height="4.25092251" rx="1.06273063"></rect>
                            <rect id="Rectangle-Copy-5" fill="#F5F4FC" x="0" y="6.37638376" width="15.9409594" height="3.18819188" rx="1.06273063"></rect>
                        </g>
                        <rect id="Rectangle-Copy-9" fill="#E8E8F9" x="68.5461255" y="1.06273063" width="12.7527675" height="4.25092251" rx="1.06273063"></rect>
                        <circle id="Oval" fill="#827ADE" cx="27.099631" cy="5.31365314" r="5.31365314"></circle>
                    </g>
                    <g id="Group-27" transform="translate(20.723247, 105.672501)">
                        <g id="Group-22-Copy-2" transform="translate(0.000000, 2.125461)">
                            <rect id="Rectangle" fill="#C3BDED" opacity="0.701148624" x="0" y="0" width="5.84501845" height="2.12546125" rx="1.06273063"></rect>
                            <rect id="Rectangle-Copy-5" fill="#E8E5FB" x="0" y="4.25092251" width="9.56457565" height="2.12546125" rx="1.06273063"></rect>
                        </g>
                        <g id="Group-24-Copy" transform="translate(36.664207, 1.062731)">
                            <rect id="Rectangle-Copy-6" fill="#B5B0EC" x="0" y="0" width="13.2841328" height="4.25092251" rx="1.06273063"></rect>
                            <rect id="Rectangle-Copy-5" fill="#F5F4FC" x="0" y="6.37638376" width="15.9409594" height="3.18819188" rx="1.06273063"></rect>
                        </g>
                        <rect id="Rectangle-Copy-10" fill="#E8E8F9" x="73.3284133" y="1.06273063" width="7.9704797" height="4.25092251" rx="1.06273063"></rect>
                        <circle id="Oval-Copy-11" fill="#827ADE" cx="27.099631" cy="5.31365314" r="5.31365314"></circle>
                    </g>
                    <g id="Group-25" transform="translate(20.723247, 131.178036)">
                        <g id="Group-22-Copy-3" transform="translate(0.000000, 2.125461)">
                            <rect id="Rectangle" fill="#C3BDED" opacity="0.701148624" x="0" y="0" width="14.8782288" height="2.12546125" rx="1.06273063"></rect>
                            <rect id="Rectangle-Copy-5" fill="#E8E5FB" x="0" y="4.25092251" width="9.56457565" height="2.12546125" rx="1.06273063"></rect>
                        </g>
                        <g id="Group-24-Copy-2" transform="translate(36.664207, 1.062731)">
                            <rect id="Rectangle-Copy-6" fill="#B5B0EC" x="0" y="0" width="23.9114391" height="4.25092251" rx="1.06273063"></rect>
                            <rect id="Rectangle-Copy-5" fill="#F5F4FC" x="0" y="6.37638376" width="12.7527675" height="3.18819188" rx="1.06273063"></rect>
                        </g>
                        <rect id="Rectangle-Copy-11" fill="#E8E8F9" x="68.5461255" y="1.06273063" width="12.7527675" height="4.25092251" rx="1.06273063"></rect>
                        <circle id="Oval-Copy-12" fill="#827ADE" cx="27.099631" cy="5.31365314" r="5.31365314"></circle>
                    </g>
                    <line x1="20.4575646" y1="97.9677043" x2="102.287823" y2="97.9677043" id="Line-4" stroke="#F5F4FC" stroke-width="0.531365314" stroke-linecap="square"></line>
                    <line x1="20.4575646" y1="124.004605" x2="102.287823" y2="124.004605" id="Line-4-Copy" stroke="#F5F4FC" stroke-width="0.531365314" stroke-linecap="square"></line>
                    <g id="bell-simple-fill-(1)" transform="translate(17.535055, 25.436339)">
                        <rect id="Rectangle" x="0" y="0" width="20.7232484" height="20.7232484"></rect>
                        <g id="Group" transform="translate(2.590406, 1.942805)" fill="#685FD7" fill-rule="nonzero">
                            <path d="M15.3031475,12.9480969 C14.8214737,12.121283 14.2472333,10.5523194 14.2472333,7.77289786 L14.2472333,6.55089809 C14.2472333,2.96600602 11.3640943,0.0280832396 7.82023105,0.00183756929 C7.80362979,0.00167566891 7.78726571,0.00167566891 7.77074377,0.00167566891 C4.1943113,0.00190545662 1.29517083,2.90125831 1.29520302,6.47769079 L1.29520302,7.77289381 C1.29520302,10.5519996 0.720725436,12.1210417 0.238819247,12.9477771 C0.00468705387,13.3482931 0.00266843544,13.8434502 0.233527316,14.2458617 C0.464386196,14.6482733 0.892855225,14.8965104 1.35678507,14.8965104 L14.185019,14.8965104 C14.6488872,14.8965104 15.077313,14.6483528 15.308194,14.246025 C15.539075,13.8436971 15.5371485,13.3486117 15.3031435,12.9480928 L15.3031475,12.9480969 Z" id="Path"></path>
                            <path d="M10.3555367,16.1917175 L5.17472464,16.1917175 C4.8170642,16.1917175 4.52712313,16.4816586 4.52712313,16.839319 C4.52712313,17.1969795 4.8170642,17.4869205 5.17472464,17.4869205 L10.3555367,17.4869205 C10.7131972,17.4869205 11.0031382,17.1969795 11.0031382,16.839319 C11.0031382,16.4816586 10.7131972,16.1917175 10.3555367,16.1917175 Z" id="Path"></path>
                        </g>
                    </g>
                </g>
            </g>
        </g>
    </g>
</svg>