<?xml version="1.0" encoding="UTF-8"?>
<svg width="226px" height="43px" viewBox="0 0 226 43" version="1.1" xmlns="http://www.w3.org/2000/svg" xmlns:xlink="http://www.w3.org/1999/xlink">
    <title>Group 6</title>
    <defs>
        <linearGradient x1="61.0301652%" y1="4.94958549%" x2="26.4625815%" y2="71.9258683%" id="linearGradient-1">
            <stop stop-color="#00A0FF" offset="0%"></stop>
            <stop stop-color="#00A1FF" offset="0.6569999%"></stop>
            <stop stop-color="#00BEFF" offset="26.01%"></stop>
            <stop stop-color="#00D2FF" offset="51.22%"></stop>
            <stop stop-color="#00DFFF" offset="76.04%"></stop>
            <stop stop-color="#00E3FF" offset="100%"></stop>
        </linearGradient>
        <linearGradient x1="107.630451%" y1="50.0004315%" x2="-130.551706%" y2="50.0004315%" id="linearGradient-2">
            <stop stop-color="#FFE000" offset="0%"></stop>
            <stop stop-color="#FFBD00" offset="40.87%"></stop>
            <stop stop-color="#FFA500" offset="77.54%"></stop>
            <stop stop-color="#FF9C00" offset="100%"></stop>
        </linearGradient>
        <linearGradient x1="86.243474%" y1="30.90425%" x2="-50.1292379%" y2="136.019454%" id="linearGradient-3">
            <stop stop-color="#FF3A44" offset="0%"></stop>
            <stop stop-color="#C31162" offset="100%"></stop>
        </linearGradient>
        <linearGradient x1="-18.8105628%" y1="-11.8250802%" x2="42.0848536%" y2="35.086648%" id="linearGradient-4">
            <stop stop-color="#32A071" offset="0%"></stop>
            <stop stop-color="#2DA771" offset="6.85%"></stop>
            <stop stop-color="#15CF74" offset="47.62%"></stop>
            <stop stop-color="#06E775" offset="80.09%"></stop>
            <stop stop-color="#00F076" offset="100%"></stop>
        </linearGradient>
    </defs>
    <g id="Page-1" stroke="none" stroke-width="1" fill="none" fill-rule="evenodd">
        <g id="480" transform="translate(-128.000000, -7521.000000)">
            <g id="07_devices" transform="translate(0.000000, 7211.000000)">
                <g id="Group-17" transform="translate(56.000000, 66.000000)">
                    <g id="Group-6" transform="translate(72.000000, 244.000000)">
                        <g id="Group-67" transform="translate(138.000000, 11.000000)" fill="#2196F3" fill-rule="nonzero">
                            <g id="edge-(1)-copy-2">
                                <path d="M18.9254581,7.81805068 C18.8463548,7.44526316 18.7449903,7.07754386 18.6218713,6.71688109 C17.3789084,2.76311891 13.7378947,0.0542300195 9.59368421,0 C4.69988304,0.13005848 0.635321637,3.81606238 0.0290448343,8.67387914 C-0.00378167641,8.90120858 0.153879142,9.11208577 0.381169591,9.14491228 C0.542690058,9.16822612 0.702923977,9.09493177 0.790877193,8.95750487 C2.86690058,5.91578947 6.3271345,4.11450292 10.0095517,4.1585575 C12.6477193,4.1585575 13.9593372,5.81282651 14.145653,7.48538012 L6.21446394,7.48538012 C6.37473684,6.99707602 6.59606238,6.53095517 6.87317739,6.09808967 C6.99832359,5.90549708 6.94362573,5.64795322 6.75107212,5.52280702 C6.6217154,5.43875244 6.45645224,5.43321637 6.32175439,5.50842105 C5.33442495,6.0497076 4.45824561,6.77267057 3.73929825,7.63925926 C2.82994152,8.9254191 2.39996101,10.4895517 2.52417154,12.0598051 C2.52417154,15.6536062 5.23805068,18.7251072 9.27598441,19.7023782 C10.1059259,19.8896296 10.9553606,19.9764912 11.8060429,19.9610526 L11.8892008,19.9610526 C12.3137232,19.9647953 12.7380507,19.9433918 13.160039,19.8969981 C14.6094347,19.7796101 16.0174659,19.3561014 17.2911501,18.654425 C17.417193,18.5796881 17.4945809,18.4441326 17.4949318,18.2976218 L17.4949318,15.1038596 C17.4950877,14.874191 17.3090058,14.6878752 17.0793372,14.6877583 C17.0033138,14.6877193 16.928694,14.708499 16.8636647,14.7479142 C15.931423,15.2871735 14.8952437,15.6222612 13.8237817,15.7309942 C13.2474854,15.7903704 12.6680702,15.814269 12.0888499,15.8025341 C8.61894737,15.8025341 6.84908382,14.4410136 6.69438596,11.6439766 L18.7425341,11.6439766 C18.9722027,11.6439766 19.1584016,11.4577778 19.1584016,11.2281092 L19.1584016,9.98054581 C19.1561404,9.25356725 19.0780897,8.52881092 18.9254581,7.81805068 Z" id="Path"></path>
                            </g>
                        </g>
                        <g id="Group-66" transform="translate(92.000000, 11.000000)" fill-rule="nonzero">
                            <g id="safari-(1)">
                                <circle id="Oval" fill="#1DA2F8" cx="10" cy="10" r="10"></circle>
                                <g id="Group" transform="translate(0.664062, 0.664062)" fill="#F2F2F2">
                                    <path d="M9.3359375,0.816015625 C9.26859375,0.816015625 9.21398437,0.76140625 9.21398437,0.6940625 L9.21398437,0.136015625 C9.21398437,0.068671875 9.26859375,0.0140625 9.3359375,0.0140625 C9.40328125,0.0140625 9.45789063,0.068671875 9.45789063,0.136015625 L9.45789063,0.6940625 C9.45789063,0.76140625 9.40328125,0.816015625 9.3359375,0.816015625 Z" id="Path"></path>
                                    <path d="M9.3359375,18.6578125 C9.26859375,18.6578125 9.21398437,18.6032031 9.21398437,18.5358594 L9.21398437,17.9778125 C9.21398437,17.9104688 9.26859375,17.8558594 9.3359375,17.8558594 C9.40328125,17.8558594 9.45789063,17.9104688 9.45789063,17.9778125 L9.45789063,18.5358594 C9.45789063,18.6032031 9.40328125,18.6578125 9.3359375,18.6578125 Z" id="Path"></path>
                                    <path d="M7.83515625,0.94734375 C7.77703125,0.94734375 7.72558594,0.905703125 7.71515625,0.846523437 L7.61824219,0.296953125 C7.6065625,0.230625 7.65085937,0.16734375 7.71714844,0.155703125 C7.78367187,0.144140625 7.84679687,0.188320312 7.8584375,0.254648437 L7.95535156,0.80421875 C7.96703125,0.870546875 7.92273437,0.933828125 7.85644531,0.94546875 C7.84925781,0.946679687 7.8421875,0.94734375 7.83515625,0.94734375 Z" id="Path"></path>
                                    <path d="M10.9333594,18.5180859 C10.8752344,18.5180859 10.8237891,18.4764453 10.8133594,18.4172656 L10.7164453,17.8676953 C10.7047656,17.8013672 10.7490625,17.7380859 10.8153516,17.7264453 C10.881875,17.7147266 10.945,17.7590234 10.9566406,17.8253906 L11.0535547,18.3749219 C11.0652344,18.44125 11.0209375,18.5045312 10.9546484,18.5161719 C10.9474609,18.5174609 10.9403906,18.5180859 10.9333594,18.5180859 Z" id="Path"></path>
                                    <path d="M6.38023437,1.3371875 C6.33042969,1.3371875 6.28367187,1.30640625 6.26566406,1.25691406 L6.07476563,0.732539063 C6.05179687,0.66921875 6.08441406,0.599257812 6.14769531,0.576210937 C6.21078125,0.55328125 6.28097656,0.58578125 6.30394531,0.649101563 L6.49480469,1.17347656 C6.51785156,1.23679688 6.48519531,1.30675781 6.42191406,1.32980469 C6.40816406,1.33480469 6.39410156,1.3371875 6.38023437,1.3371875 Z" id="Path"></path>
                                    <path d="M12.4825,18.1030078 C12.4326953,18.1030078 12.3859375,18.0722266 12.3679297,18.0227344 L12.1770703,17.4983594 C12.1540234,17.4350391 12.1866797,17.3650781 12.2499609,17.3420312 C12.3130469,17.3190234 12.3832422,17.3516016 12.4062109,17.4149219 L12.5971094,17.9392969 C12.6200781,18.0026172 12.5874609,18.0725781 12.5241797,18.095625 C12.5104297,18.100625 12.4963672,18.1030078 12.4825,18.1030078 Z" id="Path"></path>
                                    <path d="M5.01511719,1.97382813 C4.97296875,1.97382813 4.93199219,1.95195312 4.909375,1.9128125 L4.63035156,1.42953125 C4.59671875,1.37121094 4.61664063,1.29664062 4.675,1.26296875 C4.73324219,1.22914062 4.80789062,1.24925781 4.84160156,1.30757813 L5.120625,1.79085938 C5.15425781,1.84917969 5.13433594,1.92375 5.07597656,1.95742188 C5.05683594,1.96855469 5.03582031,1.97382813 5.01511719,1.97382813 Z" id="Path"></path>
                                    <path d="M13.9360156,17.4252734 C13.8938672,17.4252734 13.8528906,17.4033984 13.8302734,17.3642578 L13.55125,16.8809766 C13.5176172,16.8226563 13.5375391,16.7480859 13.5958984,16.7144141 C13.6541406,16.6805859 13.72875,16.7007031 13.7625,16.7590234 L14.0415234,17.2423047 C14.0751562,17.300625 14.0552344,17.3751953 13.996875,17.4088672 C13.9777344,17.42 13.9567188,17.4252734 13.9360156,17.4252734 Z" id="Path"></path>
                                    <path d="M3.78109375,2.8378125 C3.74632813,2.8378125 3.71171875,2.82300781 3.68761719,2.79425781 L3.32890625,2.36679687 C3.28558594,2.31519531 3.29234375,2.23828125 3.34398438,2.19496094 C3.39550781,2.15171875 3.47246094,2.15839844 3.51578125,2.21 L3.87449219,2.63746094 C3.9178125,2.6890625 3.91105469,2.76597656 3.85941406,2.80929687 C3.83660156,2.82847656 3.80878906,2.8378125 3.78109375,2.8378125 Z" id="Path"></path>
                                    <path d="M15.2495703,16.5054297 C15.2148047,16.5054297 15.1801953,16.490625 15.1560938,16.461875 L14.7974219,16.0344141 C14.7541016,15.9828125 14.7608594,15.9058984 14.8125,15.8625781 C14.8640234,15.8194141 14.9409766,15.8260156 14.9842969,15.8776172 L15.3429297,16.3050781 C15.38625,16.3566797 15.3794922,16.4335938 15.3278516,16.4769141 C15.3050781,16.4960938 15.2772266,16.5054297 15.2495703,16.5054297 Z" id="Path"></path>
                                    <path d="M2.71582031,3.90300781 C2.68816406,3.90300781 2.6603125,3.89367187 2.63753906,3.87449219 L2.21007812,3.51578125 C2.1584375,3.47246094 2.15171875,3.39558594 2.195,3.34394531 C2.23832031,3.29230469 2.31527344,3.28566406 2.36679688,3.32890625 L2.79425781,3.68761719 C2.84589844,3.7309375 2.85261719,3.8078125 2.80933594,3.85945312 C2.78519531,3.88816406 2.75058594,3.90300781 2.71582031,3.90300781 Z" id="Path"></path>
                                    <path d="M16.3833984,15.3714844 C16.3557422,15.3714844 16.3278906,15.3621484 16.3050391,15.3429687 L15.8776172,14.9842578 C15.8260547,14.9409375 15.8193359,14.8640625 15.8625781,14.8124219 C15.9058984,14.7607812 15.9827734,14.7541406 16.0344141,14.7973828 L16.4618359,15.1560937 C16.5133984,15.1994141 16.5201172,15.2762891 16.476875,15.3279297 C16.4527344,15.3566797 16.4181641,15.3714844 16.3833984,15.3714844 Z" id="Path"></path>
                                    <path d="M1.85171875,5.13695312 C1.83105469,5.13695312 1.81007812,5.13167969 1.79085937,5.12058594 L1.30757813,4.8415625 C1.24921875,4.80789062 1.22929687,4.73332031 1.26292969,4.675 C1.29664062,4.61671875 1.37101563,4.59660156 1.42953125,4.63039062 L1.9128125,4.90941406 C1.97117187,4.94308594 1.99109375,5.01765625 1.95746094,5.07597656 C1.93488281,5.11507813 1.89390625,5.13695312 1.85171875,5.13695312 Z" id="Path"></path>
                                    <path d="M17.3031641,14.0578516 C17.2825,14.0578516 17.2614844,14.0525781 17.2423047,14.0414844 L16.7590625,13.7624609 C16.7007031,13.7287891 16.6807813,13.6542188 16.7144141,13.5958984 C16.7480469,13.5375781 16.8226563,13.5174219 16.8810156,13.5512891 L17.3642578,13.8303125 C17.4226172,13.8639844 17.4425391,13.9385547 17.4089063,13.996875 C17.38625,14.0359766 17.3453125,14.0578516 17.3031641,14.0578516 Z" id="Path"></path>
                                    <path d="M1.21523438,6.50222656 C1.20136719,6.50222656 1.18730469,6.49984375 1.17355469,6.49484375 L0.649140625,6.30398438 C0.585820312,6.2809375 0.553203125,6.21097656 0.57625,6.14765625 C0.59921875,6.08433594 0.669375,6.05183594 0.7325,6.07476562 L1.25691406,6.265625 C1.32023437,6.28867187 1.35285156,6.35863281 1.32980469,6.42195312 C1.31179687,6.47144531 1.26503906,6.50222656 1.21523438,6.50222656 Z" id="Path"></path>
                                    <path d="M17.9810547,12.6044531 C17.9671875,12.6044531 17.953125,12.6020703 17.9392969,12.5970703 L17.4149219,12.4062109 C17.3516797,12.3831641 17.3190625,12.3132031 17.3421094,12.2498828 C17.3650781,12.1865625 17.4350391,12.1541016 17.4984375,12.1769922 L18.0228125,12.3678516 C18.0860547,12.3908984 18.1186719,12.4608594 18.095625,12.5241797 C18.0776172,12.57375 18.0307813,12.6044531 17.9810547,12.6044531 Z" id="Path"></path>
                                    <path d="M0.825429688,7.95726562 C0.818398437,7.95726562 0.811289062,7.95664063 0.804140625,7.95539062 L0.254570312,7.85847656 C0.188242187,7.84675781 0.143984375,7.78351562 0.155664062,7.71722656 C0.16734375,7.6509375 0.2303125,7.60667969 0.296953125,7.61828125 L0.846523437,7.71519531 C0.912851562,7.72691406 0.957109375,7.79015625 0.945429688,7.85644531 C0.935,7.915625 0.883554687,7.95726562 0.825429688,7.95726562 Z" id="Path"></path>
                                    <path d="M18.3961719,11.0554687 C18.3891406,11.0554687 18.3820313,11.0548437 18.3748828,11.0535937 L17.8253516,10.9566797 C17.7590234,10.9449609 17.7147656,10.8817187 17.7264453,10.8154297 C17.738125,10.7491406 17.8010156,10.7048828 17.8677344,10.7164844 L18.4173047,10.8133984 C18.4836328,10.8251172 18.5278906,10.8883594 18.5162109,10.9546484 C18.5057813,11.0138281 18.4542969,11.0554687 18.3961719,11.0554687 Z" id="Path"></path>
                                    <path d="M0.694023438,9.45789063 L0.136015625,9.45789063 C0.068671875,9.45789063 0.0140625,9.40328125 0.0140625,9.3359375 C0.0140625,9.26859375 0.068671875,9.21398437 0.136015625,9.21398437 L0.694023437,9.21398437 C0.761367187,9.21398437 0.815976562,9.26859375 0.815976562,9.3359375 C0.815976562,9.40328125 0.761367187,9.45789063 0.694023438,9.45789063 Z" id="Path"></path>
                                    <path d="M18.5358984,9.45789063 L17.9778125,9.45789063 C17.9104688,9.45789063 17.8558594,9.40328125 17.8558594,9.3359375 C17.8558594,9.26859375 17.9104688,9.21398437 17.9778125,9.21398437 L18.5358984,9.21398437 C18.6032422,9.21398437 18.6578516,9.26859375 18.6578516,9.3359375 C18.6578516,9.40328125 18.6032422,9.45789063 18.5358984,9.45789063 Z" id="Path"></path>
                                    <path d="M0.275664062,11.0554687 C0.217539062,11.0554687 0.16609375,11.0138281 0.155664063,10.9546484 C0.143984375,10.8883594 0.188242187,10.8250391 0.254570313,10.8133984 L0.804140625,10.7164844 C0.870703125,10.7048828 0.933789063,10.7490625 0.945429688,10.8154297 C0.957109375,10.8817188 0.912851562,10.9450391 0.846523437,10.9566797 L0.296953125,11.0535937 C0.289765625,11.0548438 0.28265625,11.0554687 0.275664062,11.0554687 Z" id="Path"></path>
                                    <path d="M17.8463672,7.95726562 C17.7882422,7.95726562 17.7367969,7.915625 17.7263672,7.85644531 C17.7146875,7.79015625 17.7589453,7.72683594 17.8252734,7.71519531 L18.3748438,7.61828125 C18.4412891,7.60667969 18.5044922,7.65085937 18.5161328,7.71722656 C18.5278125,7.78351562 18.4835547,7.84683594 18.4172266,7.85847656 L17.8676953,7.95539062 C17.8605078,7.95664062 17.8533984,7.95726562 17.8463672,7.95726562 Z" id="Path"></path>
                                    <path d="M0.69078125,12.6044531 C0.640976562,12.6044531 0.59421875,12.5736719 0.576210937,12.5241797 C0.553164062,12.4608594 0.585820312,12.3908984 0.649101562,12.3678516 L1.17351563,12.1769922 C1.23660156,12.1540625 1.30679688,12.1866016 1.32976563,12.2498828 C1.3528125,12.3132031 1.32015625,12.3831641 1.256875,12.4062109 L0.732460938,12.5970703 C0.71875,12.6021094 0.7046875,12.6044531 0.69078125,12.6044531 Z" id="Path"></path>
                                    <path d="M17.4566797,6.50222656 C17.406875,6.50222656 17.3601172,6.47144531 17.3421094,6.42195312 C17.3190625,6.35863281 17.3517187,6.28867187 17.4149219,6.265625 L17.9392969,6.07476562 C18.0027344,6.05183594 18.0726172,6.084375 18.095625,6.14765625 C18.1186719,6.21097656 18.0860156,6.2809375 18.0228125,6.30398437 L17.4984375,6.49484375 C17.4845703,6.49984375 17.4705469,6.50222656 17.4566797,6.50222656 Z" id="Path"></path>
                                    <path d="M1.36867187,14.0578516 C1.32652344,14.0578516 1.28554687,14.0359766 1.26292969,13.9968359 C1.22929687,13.9385156 1.24921875,13.8639453 1.30757813,13.8302734 L1.79085937,13.55125 C1.84925781,13.5174219 1.92371094,13.5375391 1.95746094,13.5958594 C1.99109375,13.6541797 1.97117187,13.72875 1.9128125,13.7624219 L1.42953125,14.0414453 C1.4103125,14.0525781 1.389375,14.0578516 1.36867187,14.0578516 Z" id="Path"></path>
                                    <path d="M16.8201953,5.13695312 C16.7780469,5.13695312 16.7370703,5.11507813 16.7144531,5.0759375 C16.6808203,5.01761719 16.7007422,4.94304688 16.7591016,4.909375 L17.2423438,4.63035156 C17.3005859,4.5965625 17.3751953,4.61667969 17.4089453,4.67496094 C17.4425781,4.73328125 17.4226563,4.80785156 17.3642969,4.84152344 L16.8810547,5.12054687 C16.861875,5.13167969 16.8408203,5.13695312 16.8201953,5.13695312 Z" id="Path"></path>
                                    <path d="M2.2884375,15.3714844 C2.25367188,15.3714844 2.2190625,15.3566797 2.19496094,15.3279297 C2.15164063,15.2763281 2.15839844,15.1994141 2.21003906,15.1560938 L2.6375,14.7973828 C2.68902344,14.7541406 2.76597656,14.7608203 2.80929688,14.8124219 C2.85261719,14.8640234 2.84585938,14.9409375 2.79421875,14.9842578 L2.36675781,15.3429688 C2.34394531,15.3621484 2.31613281,15.3714844 2.2884375,15.3714844 Z" id="Path"></path>
                                    <path d="M15.9560938,3.90300781 C15.9213281,3.90300781 15.8867188,3.88820312 15.8626172,3.85945313 C15.8192969,3.80785156 15.8260547,3.73097656 15.8776563,3.68761719 L16.3050781,3.32890625 C16.3567188,3.28566406 16.4336328,3.29234375 16.4769141,3.34394531 C16.5202344,3.39554687 16.5134766,3.47242188 16.461875,3.51578125 L16.0344531,3.87449219 C16.0115625,3.89363281 15.9837891,3.90300781 15.9560938,3.90300781 Z" id="Path"></path>
                                    <path d="M3.42226562,16.5054297 C3.39460937,16.5054297 3.36675781,16.4960938 3.34398437,16.4769141 C3.29234375,16.4335938 3.285625,16.3567188 3.32890625,16.3050781 L3.68761719,15.8776172 C3.73097656,15.8260156 3.80792969,15.8193359 3.85941406,15.8625781 C3.91105469,15.9058984 3.91777344,15.9827734 3.87449219,16.0344141 L3.51578125,16.461875 C3.49164062,16.490625 3.45703125,16.5054297 3.42226562,16.5054297 Z" id="Path"></path>
                                    <path d="M14.8907812,2.8378125 C14.863125,2.8378125 14.8352734,2.82847656 14.8125,2.80929687 C14.7608594,2.76597656 14.7541406,2.68910156 14.7974219,2.63746094 L15.1560937,2.21 C15.1994141,2.15839844 15.2764062,2.15171875 15.3278906,2.19496094 C15.3795312,2.23828125 15.38625,2.31519531 15.3429687,2.36679687 L14.9843359,2.79425781 C14.9601953,2.82300781 14.9255859,2.8378125 14.8907812,2.8378125 Z" id="Path"></path>
                                    <path d="M4.73585938,17.4252734 C4.71519531,17.4252734 4.69421875,17.42 4.675,17.4089062 C4.61664063,17.3752344 4.59671875,17.3006641 4.63035156,17.2423437 L4.909375,16.7590625 C4.94308594,16.7007422 5.01746094,16.680625 5.07597656,16.7144531 C5.13433594,16.748125 5.15425781,16.8226953 5.120625,16.8810156 L4.84160156,17.3642969 C4.81898438,17.4033984 4.77800781,17.4252734 4.73585938,17.4252734 Z" id="Path"></path>
                                    <path d="M13.6567578,1.97382813 C13.6360938,1.97382813 13.6151172,1.96855469 13.5958984,1.95746094 C13.5375391,1.92378906 13.5176172,1.84921875 13.55125,1.79089844 L13.8302734,1.30761719 C13.8639844,1.24929687 13.9383594,1.22914063 13.996875,1.26300781 C14.0552344,1.29667969 14.0751563,1.37125 14.0415234,1.42957031 L13.7625,1.91285156 C13.7398828,1.95195312 13.6989063,1.97382813 13.6567578,1.97382813 Z" id="Path"></path>
                                    <path d="M6.18941406,18.1030078 C6.17554688,18.1030078 6.16148438,18.100625 6.14773438,18.095625 C6.08441406,18.0725781 6.05179688,18.0026172 6.07480469,17.9392969 L6.26570313,17.4149219 C6.28875,17.3515625 6.35875,17.3189844 6.42195313,17.3420313 C6.48527344,17.3650781 6.51789063,17.4350391 6.49484375,17.4983594 L6.30398438,18.0227344 C6.28597656,18.0722656 6.23917969,18.1030078 6.18941406,18.1030078 Z" id="Path"></path>
                                    <path d="M12.2916406,1.3371875 C12.2777734,1.3371875 12.2637109,1.33480469 12.2499609,1.32980469 C12.1866406,1.30675781 12.1540234,1.23679688 12.1770703,1.17347656 L12.3679297,0.649101562 C12.3908984,0.585742187 12.4610547,0.55328125 12.5241797,0.576210937 C12.5875,0.599257813 12.6201172,0.66921875 12.5971094,0.732539063 L12.4062109,1.25691406 C12.3882813,1.30644531 12.3414453,1.3371875 12.2916406,1.3371875 Z" id="Path"></path>
                                    <path d="M7.73851562,18.5180859 C7.73148437,18.5180859 7.724375,18.5174609 7.71722656,18.5162109 C7.6509375,18.5044922 7.60664063,18.4412891 7.61832031,18.3749609 L7.71523437,17.8254297 C7.72691406,17.7591016 7.78988281,17.7148047 7.85652344,17.7264844 C7.9228125,17.7382031 7.96710937,17.8014063 7.95542969,17.8677344 L7.85851562,18.4173047 C7.84804688,18.4764063 7.79664063,18.5180859 7.73851562,18.5180859 Z" id="Path"></path>
                                    <path d="M10.8367187,0.94734375 C10.8296875,0.94734375 10.8225781,0.94671875 10.8154297,0.94546875 C10.7491406,0.93375 10.7048437,0.870546875 10.7165234,0.80421875 L10.8134375,0.254648437 C10.8251172,0.188359375 10.8880859,0.14421875 10.9547266,0.155703125 C11.0210156,0.167421875 11.0653125,0.230625 11.0536328,0.296953125 L10.9567187,0.846523438 C10.94625,0.905664063 10.8948437,0.94734375 10.8367187,0.94734375 Z" id="Path"></path>
                                    <path d="M8.66152344,1.75082031 C8.59894531,1.75082031 8.54570312,1.70296875 8.54019531,1.63953125 L8.41265625,0.181679687 C8.40679688,0.114570312 8.45640625,0.0554296875 8.52351562,0.0495703125 C8.59070313,0.0434375 8.64976563,0.093359375 8.65558594,0.160429687 L8.783125,1.61828125 C8.78898438,1.68539062 8.739375,1.74453125 8.67226562,1.75039062 C8.66867187,1.75066406 8.66503906,1.75082031 8.66152344,1.75082031 Z" id="Path"></path>
                                    <path d="M10.1376172,18.6228125 C10.0750391,18.6228125 10.0217969,18.5749609 10.0162891,18.5115234 L9.88875,17.0536719 C9.88289063,16.9865625 9.9325,16.9274219 9.99960938,16.9215625 C10.0671875,16.9154297 10.1257813,16.9653516 10.1316797,17.0324219 L10.2592188,18.4902734 C10.2650781,18.5573828 10.2154688,18.6165234 10.1483594,18.6223828 C10.1447656,18.6226172 10.1411328,18.6228125 10.1376172,18.6228125 Z" id="Path"></path>
                                    <path d="M7.33351562,1.98503906 C7.27964844,1.98503906 7.23039063,1.94910156 7.21582031,1.89464844 L6.83703125,0.48109375 C6.81960937,0.416015625 6.85816406,0.349179687 6.92324219,0.331757812 C6.98828125,0.313984375 7.05519531,0.352929687 7.07257812,0.41796875 L7.45136719,1.83152344 C7.46878906,1.89660156 7.43023437,1.9634375 7.36515625,1.98085937 C7.35460937,1.98371094 7.34394531,1.98503906 7.33351562,1.98503906 Z" id="Path"></path>
                                    <path d="M11.7169922,18.3443359 C11.663125,18.3443359 11.6138672,18.3083984 11.5992969,18.2539453 L11.2205469,16.8403906 C11.203125,16.7753125 11.2416797,16.7084766 11.3067578,16.6910547 C11.3720313,16.6733984 11.4386328,16.7122266 11.4560938,16.7772656 L11.8348438,18.1908203 C11.8522656,18.2558984 11.8137109,18.3227344 11.7486328,18.3401563 C11.7379688,18.3430078 11.7274219,18.3443359 11.7169922,18.3443359 Z" id="Path"></path>
                                    <path d="M6.06644531,2.44625 C6.02050781,2.44625 5.97652344,2.42015625 5.95585938,2.37582031 L5.33738281,1.04949219 C5.30894531,0.988476562 5.3353125,0.915898437 5.39632813,0.887460937 C5.45730469,0.859023437 5.53,0.885390625 5.55839844,0.946445312 L6.176875,2.27277344 C6.2053125,2.33378906 6.17894531,2.40636719 6.11792969,2.43480469 C6.10128906,2.44257812 6.08371094,2.44625 6.06644531,2.44625 Z" id="Path"></path>
                                    <path d="M13.2240625,17.7958594 C13.178125,17.7958594 13.1341406,17.7697656 13.1134766,17.7254297 L12.4950391,16.3991016 C12.4666016,16.3380859 12.4929688,16.2655078 12.5539844,16.2370703 C12.615,16.2086328 12.6876563,16.2350391 12.7160547,16.2960547 L13.3344922,17.6223828 C13.3629297,17.6833984 13.3365625,17.7559766 13.2755469,17.7844141 C13.2588672,17.7921875 13.2413281,17.7958594 13.2240625,17.7958594 Z" id="Path"></path>
                                    <path d="M4.89859375,3.12050781 C4.86015625,3.12050781 4.82230469,3.10238281 4.79855469,3.06851562 L3.95914062,1.86972656 C3.92058594,1.81453125 3.93394531,1.73851563 3.98910156,1.69988281 C4.04449219,1.66117188 4.12039062,1.67472656 4.15898438,1.72984375 L4.99839844,2.92863281 C5.03695312,2.98382813 5.02359375,3.05984375 4.9684375,3.09847656 C4.94710938,3.11335937 4.92269531,3.12050781 4.89859375,3.12050781 Z" id="Path"></path>
                                    <path d="M14.6129297,16.9940234 C14.5744922,16.9940234 14.5366406,16.9758984 14.5128906,16.9420313 L13.6735156,15.7432422 C13.6349609,15.6880469 13.6483203,15.6120313 13.7034766,15.5733984 C13.7588672,15.5346875 13.8347656,15.5482422 13.8733594,15.6033594 L14.7126953,16.8021484 C14.75125,16.8573438 14.7378906,16.9333594 14.6827344,16.9719922 C14.6614453,16.986875 14.6369922,16.9940234 14.6129297,16.9940234 Z" id="Path"></path>
                                    <path d="M3.86539062,3.98738281 C3.83421875,3.98738281 3.80296875,3.97546875 3.77917969,3.95167969 L2.744375,2.91683594 C2.69675781,2.86925781 2.69675781,2.79199219 2.744375,2.744375 C2.79199219,2.69675781 2.86917969,2.69675781 2.91683594,2.744375 L3.95164063,3.77917969 C3.99925781,3.82675781 3.99925781,3.90402344 3.95164063,3.95164063 C3.9278125,3.97542969 3.89664063,3.98738281 3.86539062,3.98738281 Z" id="Path"></path>
                                    <path d="M15.8412891,15.9632031 C15.8101172,15.9632031 15.7788672,15.9512891 15.7550781,15.9275 L14.7202734,14.8926953 C14.6726562,14.8451172 14.6726562,14.7678516 14.7202734,14.7202344 C14.7678906,14.6726172 14.8450781,14.6726172 14.8927344,14.7202344 L15.9275391,15.7550391 C15.9751562,15.8026172 15.9751562,15.8798828 15.9275391,15.9275 C15.9037109,15.9512891 15.8725,15.9632031 15.8412891,15.9632031 Z" id="Path"></path>
                                    <path d="M2.9984375,5.02042969 C2.97429688,5.02042969 2.94992188,5.01328125 2.92859375,4.99835937 L1.72984375,4.15898438 C1.6746875,4.12039063 1.66132812,4.04433594 1.69988281,3.98914063 C1.73859375,3.93394531 1.81449219,3.92054688 1.86976562,3.95917969 L3.06851563,4.79851563 C3.12367188,4.83710938 3.13703125,4.91316406 3.09847656,4.96835938 C3.07472656,5.00226562 3.036875,5.02042969 2.9984375,5.02042969 Z" id="Path"></path>
                                    <path d="M16.8719922,14.7347656 C16.8478516,14.7347656 16.8234766,14.7276172 16.8021484,14.7126953 L15.6033594,13.8733594 C15.5482031,13.8347656 15.5348437,13.7587109 15.5733984,13.7035156 C15.6121094,13.6483984 15.6879687,13.6349219 15.7432812,13.6735547 L16.9420703,14.5129297 C16.9972266,14.5515234 17.0105859,14.6275781 16.9720313,14.6827734 C16.9482813,14.7166016 16.9104297,14.7347656 16.8719922,14.7347656 Z" id="Path"></path>
                                    <path d="M2.32421875,6.18832031 C2.30695313,6.18832031 2.28945313,6.18464844 2.27277344,6.17683594 L0.946484375,5.55839844 C0.885390625,5.52996094 0.859023437,5.45738281 0.887460937,5.39636719 C0.915898437,5.33535156 0.988515625,5.30898437 1.04949219,5.33738281 L2.37582031,5.95582031 C2.43691406,5.98425781 2.46328125,6.05683594 2.43484375,6.11785156 C2.41414063,6.16222656 2.37015625,6.18832031 2.32421875,6.18832031 Z" id="Path"></path>
                                    <path d="M17.6738281,13.3459766 C17.6565625,13.3459766 17.6390234,13.3423047 17.6223047,13.3344922 L16.2960156,12.7160547 C16.235,12.6876172 16.2085938,12.6150391 16.2370703,12.5540234 C16.2655469,12.4930078 16.3381641,12.4666016 16.3991406,12.4950391 L17.7254297,13.1134766 C17.7864453,13.1419141 17.8128516,13.2144922 17.784375,13.2755078 C17.76375,13.3198828 17.7197266,13.3459766 17.6738281,13.3459766 Z" id="Path"></path>
                                    <path d="M1.863125,7.45558594 C1.85273437,7.45558594 1.84210938,7.45425781 1.83148438,7.45136719 L0.417890625,7.07261719 C0.352773437,7.05519531 0.31421875,6.98832031 0.331679687,6.92328125 C0.3490625,6.85824219 0.415820312,6.81945312 0.481015625,6.83707031 L1.89460937,7.21582031 C1.95972656,7.23324219 1.99828125,7.30011719 1.98082031,7.36515625 C1.96621094,7.41960938 1.91691406,7.45558594 1.863125,7.45558594 Z" id="Path"></path>
                                    <path d="M18.2224219,11.8390234 C18.2120312,11.8390234 18.2014062,11.8376953 18.1907813,11.8348047 L16.7771875,11.4560156 C16.7120703,11.4385938 16.6735156,11.3717188 16.6909766,11.3066797 C16.7083594,11.2416406 16.7751172,11.2029297 16.8403125,11.2204688 L18.2539062,11.5992578 C18.3190234,11.6166797 18.3575781,11.6835547 18.3401172,11.7485938 C18.3255859,11.803125 18.27625,11.8390234 18.2224219,11.8390234 Z" id="Path"></path>
                                    <path d="M1.62894531,8.78359375 C1.62535156,8.78359375 1.62179687,8.7834375 1.61816406,8.78308594 L0.1603125,8.65554688 C0.0932421875,8.6496875 0.0436328125,8.59058594 0.0494921875,8.5234375 C0.0553125,8.45632813 0.114648437,8.40652344 0.181601563,8.41257812 L1.63945312,8.54011719 C1.70652344,8.54597656 1.75613281,8.60507813 1.75027344,8.67222656 C1.74480469,8.73574219 1.6915625,8.78359375 1.62894531,8.78359375 Z" id="Path"></path>
                                    <path d="M18.5010156,10.2597266 C18.4975,10.2597266 18.4938672,10.2595703 18.4902734,10.2592188 L17.0323828,10.1316797 C16.9652734,10.1258203 16.915625,10.0667188 16.9215234,9.99957031 C16.9273828,9.9325 16.9860156,9.8828125 17.0535937,9.88871094 L18.5114844,10.01625 C18.5785937,10.0221094 18.6282422,10.0812109 18.6223437,10.1483594 C18.6167969,10.2119141 18.5635547,10.2597266 18.5010156,10.2597266 Z" id="Path"></path>
                                    <path d="M0.170898438,10.2597266 C0.108320312,10.2597266 0.055078125,10.211875 0.0495703125,10.1484375 C0.0437109375,10.0813281 0.0933203125,10.0221875 0.160390625,10.0163281 L1.61824219,9.88878906 C1.68640625,9.88292969 1.74453125,9.93261719 1.75035156,9.99964844 C1.75621094,10.0667578 1.70660156,10.1258984 1.63953125,10.1317578 L0.181679687,10.2592969 C0.178046875,10.2595703 0.174414062,10.2597266 0.170898438,10.2597266 Z" id="Path"></path>
                                    <path d="M17.0428906,8.78359375 C16.9803125,8.78359375 16.9270703,8.73574219 16.9215625,8.67230469 C16.9157031,8.60519531 16.9653125,8.54605469 17.0324219,8.54019531 L18.4903125,8.41265625 C18.5578125,8.40632813 18.6164844,8.45648438 18.6223828,8.52351562 C18.6282422,8.590625 18.5786328,8.64976563 18.5115234,8.655625 L17.0536328,8.78316406 C17.05,8.7834375 17.0463672,8.78359375 17.0428906,8.78359375 Z" id="Path"></path>
                                    <path d="M0.449414062,11.8390234 C0.395546875,11.8390234 0.346289062,11.803125 0.33171875,11.7486328 C0.314296875,11.6835547 0.352851562,11.6167188 0.417929687,11.5992969 L1.83152344,11.2205078 C1.89640625,11.2028125 1.96339844,11.2416797 1.98085937,11.3067188 C1.99828125,11.3717969 1.95972656,11.4386328 1.89464844,11.4560547 L0.481054687,11.8348438 C0.470507813,11.8376953 0.459804688,11.8390234 0.449414062,11.8390234 Z" id="Path"></path>
                                    <path d="M16.80875,7.45558594 C16.7548828,7.45558594 16.705625,7.41964844 16.6910547,7.36519531 C16.6736328,7.30011719 16.7121875,7.23328125 16.7772656,7.21585938 L18.1908594,6.83710938 C18.2558594,6.81949219 18.3227344,6.85828125 18.3401953,6.92332031 C18.3576172,6.98839844 18.3190625,7.05523438 18.2539844,7.07265625 L16.8403906,7.45140625 C16.8298047,7.45421875 16.8191797,7.45558594 16.80875,7.45558594 Z" id="Path"></path>
                                    <path d="M0.998007813,13.3459766 C0.952070312,13.3459766 0.908085938,13.3198828 0.887421875,13.2755078 C0.858984375,13.2144922 0.885351563,13.1419141 0.946445313,13.1134766 L2.27277344,12.4950391 C2.33351562,12.4666016 2.40632812,12.4930078 2.43480469,12.5540234 C2.46328125,12.6150391 2.436875,12.6876172 2.37578125,12.7160547 L1.04945312,13.3344922 C1.03285156,13.3422656 1.01527344,13.3459766 0.998007813,13.3459766 Z" id="Path"></path>
                                    <path d="M16.3476563,6.18832031 C16.3017188,6.18832031 16.2577344,6.16222656 16.2370703,6.11789062 C16.2086328,6.056875 16.235,5.98429688 16.2960156,5.95585937 L17.6223047,5.33742188 C17.6833203,5.30902344 17.7559375,5.33539063 17.784375,5.39640625 C17.8128125,5.45742187 17.7864453,5.53 17.7254297,5.5584375 L16.3991406,6.176875 C16.3825,6.18464844 16.3649609,6.18832031 16.3476563,6.18832031 Z" id="Path"></path>
                                    <path d="M1.79992187,14.7347656 C1.76148437,14.7347656 1.72363281,14.7166406 1.69988281,14.6827734 C1.66132812,14.6275781 1.6746875,14.5515625 1.72984375,14.5129297 L2.92859375,13.6735547 C2.98398438,13.6348437 3.05988281,13.6483984 3.09847656,13.7035156 C3.13703125,13.7587109 3.12367188,13.8347266 3.06851563,13.8733594 L1.86976563,14.7126953 C1.84847656,14.7275781 1.8240625,14.7347656 1.79992187,14.7347656 Z" id="Path"></path>
                                    <path d="M15.6733984,5.02042969 C15.6349609,5.02042969 15.5971094,5.00230469 15.5733594,4.9684375 C15.5348047,4.91324219 15.5481641,4.83722656 15.6033203,4.79859375 L16.8021094,3.95925781 C16.8575,3.92054687 16.9333203,3.93410156 16.9719922,3.98921875 C17.0105469,4.04441406 16.9971875,4.12042969 16.9420312,4.1590625 L15.7432422,4.99839844 C15.7219531,5.01324219 15.6975391,5.02042969 15.6733984,5.02042969 Z" id="Path"></path>
                                    <path d="M2.830625,15.9632031 C2.79945312,15.9632031 2.76820312,15.9512891 2.74441406,15.9275 C2.69679687,15.8799219 2.69679687,15.8026562 2.74441406,15.7550391 L3.77921875,14.7202344 C3.82683594,14.6726172 3.90402344,14.6726172 3.95167969,14.7202344 C3.99929687,14.7678125 3.99929687,14.8450781 3.95167969,14.8926953 L2.916875,15.9275 C2.89304687,15.9512891 2.86179687,15.9632031 2.830625,15.9632031 Z" id="Path"></path>
                                    <path d="M14.8065234,3.98738281 C14.7753516,3.98738281 14.7441016,3.97546875 14.7203125,3.95167969 C14.6726953,3.90410156 14.6726953,3.82683594 14.7203125,3.77921875 L15.7551172,2.74441406 C15.8027344,2.69679687 15.8799219,2.69679687 15.9275781,2.74441406 C15.9751953,2.79199219 15.9751953,2.86925781 15.9275781,2.916875 L14.8927734,3.95167969 C14.8688672,3.97542969 14.8376953,3.98738281 14.8065234,3.98738281 Z" id="Path"></path>
                                    <path d="M4.05894531,16.9940234 C4.03480469,16.9940234 4.01042969,16.986875 3.98910156,16.9719531 C3.93394531,16.9333594 3.92058594,16.8573047 3.95914063,16.8021094 L4.79855469,15.6033203 C4.83726563,15.5482031 4.91316406,15.5347266 4.9684375,15.5733594 C5.02359375,15.6119531 5.03695313,15.6880078 4.99839844,15.7432031 L4.15898438,16.9419922 C4.13519531,16.9758984 4.09742188,16.9940234 4.05894531,16.9940234 Z" id="Path"></path>
                                    <path d="M13.7732812,3.12050781 C13.7491406,3.12050781 13.7247656,3.11335937 13.7034375,3.0984375 C13.6482813,3.05984375 13.6349219,2.98378906 13.6734766,2.92859375 L14.5128516,1.72980469 C14.5515234,1.67460938 14.6275391,1.66121094 14.6827344,1.69984375 C14.7378906,1.7384375 14.75125,1.81449219 14.7126953,1.8696875 L13.8733594,3.06847656 C13.8495703,3.10238281 13.8117578,3.12050781 13.7732812,3.12050781 Z" id="Path"></path>
                                    <path d="M5.4478125,17.7958594 C5.43054688,17.7958594 5.41300781,17.7921875 5.39628906,17.784375 C5.33527344,17.7559375 5.30886719,17.6833594 5.33734375,17.6223437 L5.95582031,16.2960156 C5.98421875,16.235 6.05691406,16.2085937 6.11789063,16.2370312 C6.17890625,16.2654688 6.2053125,16.3380469 6.17683594,16.3990625 L5.55835938,17.7253906 C5.53773438,17.7697656 5.49375,17.7958594 5.4478125,17.7958594 Z" id="Path"></path>
                                    <path d="M12.6055078,2.44625 C12.5882422,2.44625 12.5707031,2.44257812 12.5539844,2.43476562 C12.4929688,2.40632812 12.4665625,2.33375 12.4950391,2.27273437 L13.1134766,0.94640625 C13.141875,0.885351563 13.2145703,0.858984375 13.2755469,0.887421875 C13.3365625,0.915859375 13.3629688,0.9884375 13.3344922,1.04945312 L12.7160547,2.37578125 C12.6953516,2.42019531 12.6513672,2.44625 12.6055078,2.44625 Z" id="Path"></path>
                                    <path d="M6.95488281,18.3443359 C6.94449219,18.3443359 6.93382812,18.3430078 6.92324219,18.3401172 C6.858125,18.3226953 6.81957031,18.2558203 6.83703125,18.1907812 L7.21582031,16.7772266 C7.23324219,16.7122656 7.30019531,16.6733984 7.36515625,16.6910156 C7.43027344,16.7084375 7.46882812,16.7753125 7.45136719,16.8403516 L7.07257812,18.2539062 C7.05800781,18.3084375 7.00871094,18.3443359 6.95488281,18.3443359 Z" id="Path"></path>
                                    <path d="M11.3383984,1.98503906 C11.3280078,1.98503906 11.3173828,1.98371094 11.3067578,1.98082031 C11.2416406,1.96339844 11.2030859,1.89652344 11.2205469,1.83148437 L11.5992969,0.417929687 C11.6167188,0.352890625 11.6833203,0.313984375 11.7486328,0.33171875 C11.81375,0.349140625 11.8523047,0.416015625 11.8348438,0.481054687 L11.4560938,1.89460937 C11.4415234,1.9490625 11.3922266,1.98503906 11.3383984,1.98503906 Z" id="Path"></path>
                                    <path d="M8.53421875,18.6228125 C8.53070313,18.6228125 8.52707031,18.6226563 8.52347656,18.6223047 C8.45636719,18.6164453 8.40671875,18.5573047 8.41261719,18.4901953 L8.54015625,17.0323438 C8.54597656,16.9652734 8.60511719,16.9153516 8.67222656,16.9214844 C8.73933594,16.9273438 8.78898438,16.9864453 8.78308594,17.0535938 L8.65554688,18.5114453 C8.65,18.5749609 8.59679688,18.6228125 8.53421875,18.6228125 Z" id="Path"></path>
                                    <path d="M10.0103125,1.75082031 C10.0067969,1.75082031 10.0031641,1.75066406 9.99957031,1.7503125 C9.93246094,1.74445313 9.8828125,1.68535156 9.88871094,1.61820313 L10.01625,0.160351563 C10.0220703,0.09328125 10.0805859,0.0433203125 10.1483203,0.0494921875 C10.2154297,0.0553515625 10.2650781,0.114453125 10.2591797,0.181601563 L10.1316406,1.63945313 C10.1261328,1.70300781 10.0729297,1.75082031 10.0103125,1.75082031 Z" id="Path"></path>
                                    <polygon id="Path" points="10.5440625 10.5440625 15.9326953 2.73917969 8.1278125 8.1278125 2.73917969 15.9326953"></polygon>
                                </g>
                                <polygon id="Path" fill="#CCCCCC" points="11.208125 11.208125 16.5967578 3.40324219 3.40324219 16.5967578"></polygon>
                                <polygon id="Path" fill="#FF525D" points="11.208125 11.208125 16.5967578 3.40324219 8.791875 8.791875"></polygon>
                                <polygon id="Path" fill="#EF4152" points="11.208125 11.208125 16.5967578 3.40324219 10 10"></polygon>
                            </g>
                        </g>
                        <g id="Group-65" transform="translate(46.000000, 11.000000)" fill-rule="nonzero">
                            <g id="opera-(1)">
                                <path d="M6.70875,4.365 C7.62625,3.28125 8.81125,2.62875 10.10625,2.62875 C13.0175,2.62875 15.3775,5.92875 15.3775,10 C15.3775,14.07125 13.0175,17.3725 10.10625,17.3725 C8.81125,17.3725 7.62625,16.71875 6.70875,15.63625 C8.14375,17.49875 10.27625,18.68 12.6575,18.68 C14.1225,18.68 15.4925,18.2325 16.665,17.455 C18.71125,15.62375 20,12.9625 20,10 C20,7.0375 18.71125,4.37625 16.665,2.54625 C15.4925,1.76875 14.1225,1.32124901 12.6575,1.32124901 C10.27625,1.32 8.1425,2.5025 6.70875,4.365" id="Path" fill="#D32F2F"></path>
                                <path d="M10,0 C4.4775,0 0,4.4775 0,10 C0,15.3625 4.2225,19.74 9.52375,19.98875 C9.68125,19.99625 9.84,20 10,20 C12.56,20 14.895,19.0375 16.66375,17.455 C15.49125,18.2325 14.12125,18.68 12.65625,18.68 C10.275,18.68 8.1425,17.49875 6.7075,15.63625 C5.60125,14.33125 4.885,12.4025 4.8375,10.23625 C4.8375,10.23125 4.8375,9.77125 4.8375,9.765 C4.88625,7.6 5.6025,5.67 6.7075,4.365 C8.1425,2.5025 10.275,1.32125 12.65625,1.32125 C14.12125,1.32125 15.49125,1.76875 16.66375,2.54625 C14.905,0.97125 12.58375,0.01 10.0375,0 C10.025,0 10.0125,0 10,0 L10,0 Z" id="Path" fill="#F44336"></path>
                            </g>
                        </g>
                        <g id="Group-64" transform="translate(0.000000, 11.000000)" fill-rule="nonzero">
                            <g id="chrome-(2)">
                                <path d="M2.41476562,3.48453125 C7.06351562,-1.92546875 15.6835156,-0.85796875 18.9047656,5.46203125 C16.6360156,5.46328125 13.0847656,5.46078125 11.1610156,5.46203125 C9.76601562,5.46203125 8.86476562,5.43078125 7.88976562,5.94453125 C6.74351562,6.54828125 5.87726562,7.66703125 5.57601562,8.98203125 L2.41476562,3.48453125 Z" id="Path" fill="#F44336"></path>
                                <path d="M6.67351562,10.0007812 C6.67351562,11.8345312 8.16476562,13.3257812 9.99726562,13.3257812 C11.8297656,13.3257812 13.3210156,11.8345312 13.3210156,10.0007812 C13.3210156,8.16703125 11.8297656,6.67578047 9.99726563,6.67578047 C8.16351562,6.67453125 6.67351562,8.16703125 6.67351562,10.0007812 Z" id="Path" fill="#2196F3"></path>
                                <path d="M11.2860156,14.3532813 C9.42101562,14.9070312 7.23726563,14.2932812 6.04226562,12.2282813 C5.12976562,10.6532813 2.71726563,6.45203125 1.62226563,4.54078125 C-2.21773437,10.4257812 1.09101563,18.4445313 8.06101562,19.8132813 L11.2860156,14.3532813 Z" id="Path" fill="#4CAF50"></path>
                                <path d="M13.0835156,6.67453125 C14.6372656,8.11953125 14.9760156,10.4595312 13.9235156,12.2732813 C13.1310156,13.6407812 10.5997656,17.9120313 9.37351562,19.9795313 C16.5547656,20.4220312 21.7897656,13.3845312 19.4247656,6.67328125 L13.0835156,6.67453125 Z" id="Path" fill="#FFC107"></path>
                            </g>
                        </g>
                        <g id="Group" transform="translate(208.000000, 11.000000)">
                            <path d="M0.354651163,0.302703866 C0.129844961,0.544951928 0,0.915106967 0,1.39960309 L0,18.5837116 C0,19.0682077 0.129844961,19.4383628 0.362403101,19.6709209 L0.42248062,19.7232465 L10.0503876,10.0953395 L10.0503876,9.88022325 L0.414728682,0.250378285 C0.414728682,0.250378285 0.354651163,0.302703866 0.354651163,0.302703866 Z" id="Path" fill="url(#linearGradient-1)"></path>
                            <path d="M13.253876,13.3143318 L10.0426357,10.1030915 L10.0426357,9.87828526 L13.253876,6.66704495 L13.3236434,6.70968061 L17.122093,8.86859534 C18.2093023,9.48099844 18.2093023,10.4926263 17.122093,11.1127814 L13.3236434,13.2716961 C13.3236434,13.2716961 13.253876,13.3143318 13.253876,13.3143318 Z" id="Path" fill="url(#linearGradient-2)"></path>
                            <path d="M13.3236434,13.2716961 L10.0426357,9.99068836 L0.354651163,19.6786729 C0.709302326,20.0585178 1.30426357,20.1011535 1.96899225,19.7309984 L13.3236434,13.2716961" id="Path" fill="url(#linearGradient-3)"></path>
                            <path d="M13.3236434,6.70968061 L1.96899225,0.260068208 C1.30426357,-0.119776754 0.707364341,-0.0674511723 0.354651163,0.312393789 L10.0426357,9.99068836 L13.3236434,6.70968061 Z" id="Path" fill="url(#linearGradient-4)"></path>
                        </g>
                        <line x1="181.5" y1="0.5" x2="181.5" y2="42.5" id="Line-7" stroke="#383E50" opacity="0.0690336682" stroke-linecap="square"></line>
                    </g>
                </g>
            </g>
        </g>
    </g>
</svg>