<?xml version="1.0" encoding="UTF-8"?>
<svg width="26px" height="26px" viewBox="0 0 26 26" version="1.1" xmlns="http://www.w3.org/2000/svg" xmlns:xlink="http://www.w3.org/1999/xlink">
    <title>Path Copy 2</title>
    <defs>
        <rect id="path-1" x="0" y="0" width="26" height="26" rx="6.93333333"></rect>
    </defs>
    <g id="Page-1" stroke="none" stroke-width="1" fill="none" fill-rule="evenodd">
        <g id="320" transform="translate(-149.000000, -8750.000000)">
            <g id="08_revs" transform="translate(0.000000, 8144.000000)">
                <g id="Group-10" transform="translate(9.000000, 271.000000)">
                    <g id="Group-20" transform="translate(97.000000, 263.000000)">
                        <g id="Path-Copy-2" transform="translate(43.000000, 72.000000)">
                            <mask id="mask-2" fill="white">
                                <use xlink:href="#path-1"></use>
                            </mask>
                            <use id="Mask" fill="#2196F3" xlink:href="#path-1"></use>
                            <path d="M19.217372,7.80536578 L21.4782464,7.80536578 C21.7904036,7.80536578 22.0434783,7.55831531 22.0434783,7.2535887 L22.0434783,3.9430297 C22.0434783,3.63835481 21.7903506,3.39130435 21.4781934,3.39130435 L19.217319,3.39130435 C15.7835899,3.39130435 12.9999807,6.10865256 12.9999807,9.46064528 L12.9999807,12.2194272 L10.1739275,12.2194272 C9.8617703,12.2194272 9.60869565,12.4664777 9.60869565,12.7712043 L9.60869565,16.0817633 C9.60869565,16.3864899 9.8617703,16.6335404 10.1739275,16.6335404 L12.9999807,16.6335404 L12.9999807,26.5652174 L17.5216765,26.5652174 L17.5216765,16.6335404 L20.3477827,16.6335404 C20.5909485,16.6333852 20.806772,16.4813581 20.8836058,16.2561366 L22.0140165,12.9455776 C22.1126817,12.6564727 21.9525494,12.3440387 21.6563949,12.2477221 C21.598955,12.2290485 21.5387597,12.2194789 21.4781934,12.2194272 L17.5216765,12.2194272 L17.5216765,9.46064528 C17.5217295,8.54646545 18.2809005,7.80536578 19.217372,7.80536578 Z" id="Path" fill="#FAFAFA" fill-rule="nonzero" mask="url(#mask-2)"></path>
                        </g>
                    </g>
                </g>
            </g>
        </g>
    </g>
</svg>