<?xml version="1.0" encoding="UTF-8"?>
<svg width="36px" height="37px" viewBox="0 0 36 37" version="1.1" xmlns="http://www.w3.org/2000/svg" xmlns:xlink="http://www.w3.org/1999/xlink">
    <title>Group 7 Copy</title>
    <defs>
        <linearGradient x1="50%" y1="0.215799825%" x2="50%" y2="100%" id="linearGradient-1">
            <stop stop-color="#FF514F" offset="0%"></stop>
            <stop stop-color="#F55B51" offset="100%"></stop>
        </linearGradient>
    </defs>
    <g id="Page-1" stroke="none" stroke-width="1" fill="none" fill-rule="evenodd">
        <g id="capital_bear_main_reg" transform="translate(-282.000000, -146.000000)">
            <g id="Group-12" transform="translate(232.000000, 96.000000)">
                <g id="Group-61" transform="translate(50.000000, 50.000000)">
                    <g id="Group-7-Copy" transform="translate(0.132556, 0.343789)">
                        <path d="M29.9287351,20.8519756 L24.6035085,28.7979561 C23.9369399,29.7923973 23.077786,30.6213106 22.0492841,31.26114 C20.6728552,32.1180657 19.0844231,32.5707211 17.4562005,32.5707211 L17.4558822,32.5707211 C16.8577532,32.5707211 16.2577142,32.5092847 15.6719997,32.3876853 C13.4488314,31.9267535 11.5404846,30.6518696 10.2980697,28.7979561 L4.97284301,20.8519756 L0.959425735,26.8402692 C0.332965932,27.7745474 0,28.8632123 0,29.9754331 C0,31.5711866 0.671343356,33.0157367 1.7565067,34.061428 C2.84167005,35.1071193 4.34065339,35.7539518 5.99657,35.7539518 L28.9046898,35.7539518 C30.0586109,35.7539518 31.1883395,35.4334005 32.1579516,34.8295416 C33.5490234,33.9640212 34.4441479,32.636614 34.7669275,31.1911089 C35.0900254,29.7452855 34.8404601,28.1807276 33.9418341,26.8402692 L29.9287351,20.8519756 Z" id="Fill-1" fill="#9E50EE"></path>
                        <path d="M16.1890837,28.5192005 C17.6893404,28.8305205 19.312788,28.5898683 20.7038598,27.7240295 C21.4181768,27.2793322 22.0264922,26.6936177 22.4880607,26.0050849 L33.9419614,8.91368262 C34.8402691,7.57322417 35.0898344,6.00866628 34.7670548,4.56284289 C34.4439569,3.11733783 33.5491507,1.78993063 32.1580789,0.924410197 C31.1884668,0.320869655 30.0587382,-1.87583282e-14 28.9048171,-1.87583282e-14 L5.99637901,-1.87583282e-14 C4.34078072,-1.87583282e-14 2.84147906,0.64683248 1.75631571,1.69284209 C0.671152362,2.73853338 0.000127329229,4.18308347 0.000127329229,5.77883702 C0.000127329229,6.89105783 0.333093261,7.97972273 0.959234741,8.91368262 L12.4134538,26.0050849 C13.3117615,27.3452251 14.6888271,28.2078806 16.1890837,28.5192005" id="Fill-4" fill="url(#linearGradient-1)"></path>
                    </g>
                </g>
            </g>
        </g>
    </g>
</svg>