<?xml version="1.0" encoding="UTF-8"?>
<svg width="144px" height="22px" viewBox="0 0 144 22" version="1.1" xmlns="http://www.w3.org/2000/svg" xmlns:xlink="http://www.w3.org/1999/xlink">
    <title>cap_bear_logo</title>
    <defs>
        <linearGradient x1="50%" y1="0.215799825%" x2="50%" y2="100%" id="linearGradient-1">
            <stop stop-color="#FF514F" offset="0%"></stop>
            <stop stop-color="#F55B51" offset="100%"></stop>
        </linearGradient>
    </defs>
    <g id="Page-1" stroke="none" stroke-width="1" fill="none" fill-rule="evenodd">
        <g id="320" transform="translate(-88.000000, -9026.000000)">
            <g id="09_footer" transform="translate(0.000000, 8968.000000)">
                <g id="cap_bear_logo" transform="translate(88.000000, 58.000000)">
                    <path d="M6.01630603,17.0462004 C8.61972574,17.0462004 10.7637184,15.5309826 11.6388175,13.2135907 L8.90413293,12.3891339 C8.40095097,13.5478299 7.30707715,14.2608736 6.01630603,14.2608736 C5.1193295,14.2608736 4.35361782,13.948917 3.74104848,13.3027211 C3.12847914,12.6565253 2.82219447,11.8766338 2.82219447,10.9184813 C2.82219447,9.96032888 3.12847914,9.18043736 3.74104848,8.53424152 C4.35361782,7.88804569 5.1193295,7.57608908 6.01630603,7.57608908 C7.30707715,7.57608908 8.40095097,8.28913276 8.90413293,9.44782874 L11.6388175,8.62337198 C10.7637184,6.30598003 8.61972574,4.79076221 6.01630603,4.79076221 C4.28798539,4.79076221 2.86594942,5.3701102 1.70644317,6.55108879 C0.568814389,7.70978477 0,9.15815474 0,10.9184813 C0,12.6788079 0.568814389,14.1271779 1.70644317,15.3081565 C2.86594942,16.4668524 4.28798539,17.0462004 6.01630603,17.0462004 Z M18.4427127,17.0462004 C19.7334838,17.0462004 20.89299,16.6228307 21.899354,15.798374 L21.899354,16.7119612 L24.6121611,16.7119612 L24.6121611,5.12500144 L21.899354,5.12500144 L21.899354,6.03858865 C20.89299,5.2141319 19.7334838,4.79076221 18.4427127,4.79076221 C16.8675344,4.79076221 15.5548858,5.3701102 14.4828894,6.55108879 C13.4327706,7.70978477 12.9077111,9.15815474 12.9077111,10.9184813 C12.9077111,12.6788079 13.4327706,14.1271779 14.4828894,15.3081565 C15.5548858,16.4668524 16.8675344,17.0462004 18.4427127,17.0462004 Z M18.7927523,14.2608736 C17.9395307,14.2608736 17.1956965,13.948917 16.6050047,13.3027211 C16.0143128,12.6565253 15.7299056,11.8766338 15.7299056,10.9184813 C15.7299056,9.96032888 16.0143128,9.18043736 16.6050047,8.53424152 C17.1956965,7.88804569 17.9395307,7.57608908 18.7927523,7.57608908 C19.6459739,7.57608908 20.3679306,7.88804569 20.9586225,8.53424152 C21.5493143,9.18043736 21.855599,9.96032888 21.855599,10.9184813 C21.855599,11.8766338 21.5493143,12.6565253 20.9586225,13.3027211 C20.3679306,13.948917 19.6459739,14.2608736 18.7927523,14.2608736 Z M29.6658581,21.7255496 L29.6658581,15.798374 C30.672222,16.6228307 31.8098508,17.0462004 33.1006219,17.0462004 C34.6758002,17.0462004 35.9884488,16.4668524 37.0604452,15.3081565 C38.1324415,14.1271779 38.657501,12.6788079 38.657501,10.9184813 C38.657501,9.15815474 38.1324415,7.70978477 37.0604452,6.55108879 C35.9884488,5.3701102 34.6758002,4.79076221 33.1006219,4.79076221 C31.8098508,4.79076221 30.672222,5.2141319 29.6658581,6.03858865 L29.6658581,5.12500144 L26.9311736,5.12500144 L26.9311736,21.7255496 L29.6658581,21.7255496 Z M32.7505823,14.2608736 C31.8973607,14.2608736 31.175404,13.948917 30.5847121,13.3027211 C29.9940203,12.6565253 29.7096131,11.8766338 29.7096131,10.9184813 C29.7096131,9.96032888 29.9940203,9.18043736 30.5847121,8.53424152 C31.175404,7.88804569 31.8973607,7.57608908 32.7505823,7.57608908 C33.6038039,7.57608908 34.3257606,7.88804569 34.9164525,8.53424152 C35.5071443,9.18043736 35.813429,9.96032888 35.813429,10.9184813 C35.813429,11.8766338 35.5071443,12.6565253 34.9164525,13.3027211 C34.3257606,13.948917 33.6038039,14.2608736 32.7505823,14.2608736 Z M41.8953675,4.10000115 C42.9236089,4.10000115 43.6455656,3.32010963 43.6455656,2.31739195 C43.6455656,1.31467428 42.8798539,0.557065374 41.8953675,0.557065374 C40.910881,0.557065374 40.1670468,1.31467428 40.1670468,2.31739195 C40.1670468,3.32010963 40.910881,4.10000115 41.8953675,4.10000115 Z M43.2736485,16.7119612 L43.2736485,5.12500144 L40.5389639,5.12500144 L40.5389639,16.7119612 L43.2736485,16.7119612 Z M51.8277418,16.7119612 L51.8277418,14.06033 L50.4057058,14.06033 C49.5962392,14.06033 49.0055473,13.4586994 49.0055473,12.6565253 L49.0055473,7.55380647 L51.8277418,7.55380647 L51.8277418,5.12500144 L49.0055473,5.12500144 L49.0055473,2.85217471 L46.2708628,2.85217471 L46.2708628,5.12500144 L44.6519295,5.12500144 L44.6519295,7.55380647 L46.2708628,7.55380647 L46.2708628,13.0576124 C46.2708628,14.1048953 46.6427799,14.9739172 47.3866141,15.6646783 C48.1304483,16.3554394 49.0493023,16.7119612 50.1431761,16.7119612 L51.8277418,16.7119612 Z M58.631637,17.0462004 C59.9224081,17.0462004 61.0819144,16.6228307 62.0882783,15.798374 L62.0882783,16.7119612 L64.8010854,16.7119612 L64.8010854,5.12500144 L62.0882783,5.12500144 L62.0882783,6.03858865 C61.0819144,5.2141319 59.9224081,4.79076221 58.631637,4.79076221 C57.0564587,4.79076221 55.7438101,5.3701102 54.6718137,6.55108879 C53.6216949,7.70978477 53.0966354,9.15815474 53.0966354,10.9184813 C53.0966354,12.6788079 53.6216949,14.1271779 54.6718137,15.3081565 C55.7438101,16.4668524 57.0564587,17.0462004 58.631637,17.0462004 Z M58.9816766,14.2608736 C58.128455,14.2608736 57.3846208,13.948917 56.793929,13.3027211 C56.2032371,12.6565253 55.9188299,11.8766338 55.9188299,10.9184813 C55.9188299,9.96032888 56.2032371,9.18043736 56.793929,8.53424152 C57.3846208,7.88804569 58.128455,7.57608908 58.9816766,7.57608908 C59.8348982,7.57608908 60.5568549,7.88804569 61.1475468,8.53424152 C61.7382387,9.18043736 62.0445233,9.96032888 62.0445233,10.9184813 C62.0445233,11.8766338 61.7382387,12.6565253 61.1475468,13.3027211 C60.5568549,13.948917 59.8348982,14.2608736 58.9816766,14.2608736 Z M69.8547824,16.7119612 L69.8547824,0 L67.1200979,0 L67.1200979,16.7119612 L69.8547824,16.7119612 Z" id="capital" fill="#FFFFFF" fill-rule="nonzero"></path>
                    <path d="M102.846017,17.0462004 C104.421195,17.0462004 105.733844,16.4668524 106.80584,15.3081565 C107.877837,14.1271779 108.402896,12.6788079 108.402896,10.9184813 C108.402896,9.15815474 107.877837,7.70978477 106.80584,6.55108879 C105.733844,5.3701102 104.421195,4.79076221 102.846017,4.79076221 C101.555246,4.79076221 100.417617,5.2141319 99.4112532,6.03858865 L99.4112532,0 L96.6765686,0 L96.6765686,16.7119612 L99.4112532,16.7119612 L99.4112532,15.798374 C100.417617,16.6228307 101.555246,17.0462004 102.846017,17.0462004 Z M102.495977,14.2608736 C101.642756,14.2608736 100.920799,13.948917 100.330107,13.3027211 C99.7394153,12.6565253 99.4550081,11.8766338 99.4550081,10.9184813 C99.4550081,9.96032888 99.7394153,9.18043736 100.330107,8.53424152 C100.920799,7.88804569 101.642756,7.57608908 102.495977,7.57608908 C103.349199,7.57608908 104.071156,7.88804569 104.661848,8.53424152 C105.252539,9.18043736 105.558824,9.96032888 105.558824,10.9184813 C105.558824,11.8766338 105.252539,12.6565253 104.661848,13.3027211 C104.071156,13.948917 103.349199,14.2608736 102.495977,14.2608736 Z M116.016258,17.0462004 C118.313393,17.0462004 120.282366,15.8875045 121.332485,14.0380474 L118.68531,13.2581559 C118.028986,14.0826126 117.132009,14.4836997 116.016258,14.4836997 C114.419202,14.4836997 113.106553,13.4586994 112.690881,11.9434816 L121.726279,11.9434816 C121.791912,11.4978293 121.813789,11.1635901 121.813789,10.9184813 C121.813789,9.18043736 121.244975,7.73206739 120.085468,6.55108879 C118.94784,5.3701102 117.525804,4.79076221 115.841238,4.79076221 C114.156672,4.79076221 112.734636,5.3701102 111.57513,6.55108879 C110.437501,7.70978477 109.868687,9.15815474 109.868687,10.9184813 C109.868687,12.6788079 110.459379,14.1271779 111.618885,15.3081565 C112.800269,16.4668524 114.26606,17.0462004 116.016258,17.0462004 Z M118.991595,9.78206796 L112.712759,9.78206796 C113.128431,8.33369799 114.375447,7.35326293 115.797483,7.35326293 C117.285151,7.35326293 118.554045,8.33369799 118.991595,9.78206796 Z M128.617684,17.0462004 C129.908455,17.0462004 131.067962,16.6228307 132.074326,15.798374 L132.074326,16.7119612 L134.787133,16.7119612 L134.787133,5.12500144 L132.074326,5.12500144 L132.074326,6.03858865 C131.067962,5.2141319 129.908455,4.79076221 128.617684,4.79076221 C127.042506,4.79076221 125.729857,5.3701102 124.657861,6.55108879 C123.607742,7.70978477 123.082683,9.15815474 123.082683,10.9184813 C123.082683,12.6788079 123.607742,14.1271779 124.657861,15.3081565 C125.729857,16.4668524 127.042506,17.0462004 128.617684,17.0462004 Z M128.967724,14.2608736 C128.114502,14.2608736 127.370668,13.948917 126.779976,13.3027211 C126.189284,12.6565253 125.904877,11.8766338 125.904877,10.9184813 C125.904877,9.96032888 126.189284,9.18043736 126.779976,8.53424152 C127.370668,7.88804569 128.114502,7.57608908 128.967724,7.57608908 C129.820945,7.57608908 130.542902,7.88804569 131.133594,8.53424152 C131.724286,9.18043736 132.030571,9.96032888 132.030571,10.9184813 C132.030571,11.8766338 131.724286,12.6565253 131.133594,13.3027211 C130.542902,13.948917 129.820945,14.2608736 128.967724,14.2608736 Z M139.84083,16.7119612 L139.84083,10.3391333 C139.84083,8.8016329 140.956581,7.64293693 142.466127,7.64293693 C142.859921,7.64293693 143.231839,7.73206739 143.581878,7.88804569 L143.581878,4.79076221 C141.875435,4.79076221 140.628419,5.3701102 139.84083,6.55108879 L139.84083,5.12500144 L137.106145,5.12500144 L137.106145,16.7119612 L139.84083,16.7119612 Z" id="bear" fill="#FFFFFF" fill-rule="nonzero"></path>
                    <g id="Group-7-Copy" transform="translate(75.514798, 0.159162)">
                        <path d="M13.6039705,9.65369239 L11.1834129,13.3323871 C10.8804272,13.7927765 10.4899027,14.1765327 10.0224019,14.47275 C9.39675235,14.8694749 8.67473775,15.0790375 7.93463661,15.0790375 L7.93449192,15.0790375 C7.66261508,15.0790375 7.38987008,15.0505948 7.12363624,14.9942988 C6.11310519,14.7809044 5.24567482,14.1906804 4.68094075,13.3323871 L2.26038319,9.65369239 L0.436102607,12.4260505 C0.151348151,12.8585868 0,13.3625983 0,13.8775153 C0,14.6162901 0.305156071,15.2850633 0.798412138,15.7691796 C1.29166821,16.253296 1.97302427,16.5527555 2.72571364,16.5527555 L13.1384954,16.5527555 C13.663005,16.5527555 14.176518,16.4043521 14.6172507,16.1247878 C15.2495561,15.7240839 15.6564308,15.1095435 15.8031488,14.4403282 C15.9500115,13.7709655 15.8365728,13.0466332 15.4281064,12.4260505 L13.6039705,9.65369239 Z" id="Fill-1" fill="#9E50EE"></path>
                        <path d="M7.35867442,13.2033336 C8.04060926,13.3474632 8.77854001,13.2360501 9.41084538,12.8351988 C9.73553492,12.6293205 10.0120419,12.3581564 10.2218458,12.0393912 L15.4281643,4.12670492 C15.8364859,3.5061223 15.9499247,2.78178994 15.8032067,2.11242727 C15.656344,1.44321196 15.249614,0.828671586 14.6173086,0.427967684 C14.1765758,0.148550766 13.6630628,-8.68441121e-15 13.1385532,-8.68441121e-15 L2.72562682,-8.68441121e-15 C1.97308215,-8.68441121e-15 1.29158139,0.299459481 0.798325323,0.78372319 C0.305069256,1.26783953 5.78769224e-05,1.93661272 5.78769224e-05,2.67538751 C5.78769224e-05,3.19030455 0.151406028,3.69431608 0.436015791,4.12670492 L5.642479,12.0393912 C6.05080068,12.6598264 6.67673959,13.059204 7.35867442,13.2033336" id="Fill-4" fill="url(#linearGradient-1)"></path>
                    </g>
                </g>
            </g>
        </g>
    </g>
</svg>