<?xml version="1.0" encoding="UTF-8"?>
<svg width="320px" height="320px" viewBox="0 0 320 320" version="1.1" xmlns="http://www.w3.org/2000/svg" xmlns:xlink="http://www.w3.org/1999/xlink">
    <title>st_1</title>
    <g id="Page-1" stroke="none" stroke-width="1" fill="none" fill-rule="evenodd">
        <g id="320" transform="translate(0.000000, -1816.000000)">
            <g id="03_steps" transform="translate(0.000000, 1272.000000)">
                <g id="Group-9" transform="translate(0.000000, 320.000000)">
                    <g id="st_1" transform="translate(0.000000, 224.000000)">
                        <g id="Rectangle-2" fill="#F9F9FB">
                            <rect id="Rectangle" x="0" y="0" width="320" height="320"></rect>
                        </g>
                        <g id="Group-14" transform="translate(16.761905, 38.095238)">
                            <g id="step_pic" transform="translate(0.000000, 33.523810)">
                                <rect id="Rectangle" fill="#F9F9FB" x="0" y="0" width="286.47619" height="214.095238" rx="5.33333333"></rect>
                                <g id="Group-5" transform="translate(32.000000, 13.714286)">
                                    <rect id="Rectangle" fill="#F3F2F9" x="0" y="9.14285714" width="222.47619" height="45.7142857" rx="4.57142857"></rect>
                                    <rect id="Rectangle-Copy" fill="#F3F2F9" x="0" y="73.9047619" width="222.47619" height="45.7142857" rx="4.57142857"></rect>
                                    <rect id="Rectangle-Copy-5" fill="#DED5F3" opacity="0.759254092" x="0" y="131.809524" width="222.47619" height="45.7142857" rx="4.57142857"></rect>
                                    <rect id="Rectangle-Copy-4" fill="#EFEEF7" x="0" y="64.7619048" width="77.7142857" height="5.33333333" rx="2.66666667"></rect>
                                    <rect id="Rectangle-Copy-7" fill="#EFEEF7" x="0" y="0" width="77.7142857" height="5.33333333" rx="2.66666667"></rect>
                                    <rect id="Rectangle-Copy-6" fill="#F2F2F2" x="0" y="26.6666667" width="77.7142857" height="5.33333333" rx="2.66666667"></rect>
                                    <text id="Create-an-account" font-family="Manrope-SemiBold, Manrope" font-size="12.1904762" font-weight="500" fill="#1D0336">
                                        <tspan x="57.9047619" y="159.285714">Create an account</tspan>
                                    </text>
                                    <g id="check-circle-fill-(1)" transform="translate(195.809524, 24.380952)">
                                        <rect id="Rectangle" x="0" y="0" width="15.2380952" height="15.2380952"></rect>
                                        <path d="M7.61904762,1.42857143 C4.20014202,1.42857143 1.42857143,4.20014202 1.42857143,7.61904762 C1.42857143,11.0379532 4.20014202,13.8095238 7.61904762,13.8095238 C11.0379532,13.8095238 13.8095238,11.0379532 13.8095238,7.61904762 C13.8055742,4.20177935 11.0363159,1.43252105 7.61904762,1.42857143 Z M10.5673363,6.5350631 L7.0749631,9.86839643 C6.8905386,10.0438679 6.60090545,10.0438679 6.41648095,9.86839643 L4.67075893,8.20172976 C4.48085028,8.01981676 4.4741785,7.71845892 4.65585027,7.52831949 C4.83752203,7.33818005 5.13887116,7.33112571 5.32924107,7.51255595 L6.74572143,8.86532738 L9.90885417,5.84588929 C10.0992241,5.66445905 10.4005732,5.67151339 10.582245,5.86165282 C10.7639167,6.05179226 10.757245,6.3531501 10.5673363,6.5350631 Z" id="Shape" fill="#6ED37E" fill-rule="nonzero"></path>
                                    </g>
                                    <g id="check-circle-fill-(1)-copy" transform="translate(195.809524, 89.142857)">
                                        <rect id="Rectangle" x="0" y="0" width="15.2380952" height="15.2380952"></rect>
                                        <path d="M7.61904762,1.42857143 C4.20014202,1.42857143 1.42857143,4.20014202 1.42857143,7.61904762 C1.42857143,11.0379532 4.20014202,13.8095238 7.61904762,13.8095238 C11.0379532,13.8095238 13.8095238,11.0379532 13.8095238,7.61904762 C13.8055742,4.20177935 11.0363159,1.43252105 7.61904762,1.42857143 Z M10.5673363,6.5350631 L7.0749631,9.86839643 C6.8905386,10.0438679 6.60090545,10.0438679 6.41648095,9.86839643 L4.67075893,8.20172976 C4.48085028,8.01981676 4.4741785,7.71845892 4.65585027,7.52831949 C4.83752203,7.33818005 5.13887116,7.33112571 5.32924107,7.51255595 L6.74572143,8.86532738 L9.90885417,5.84588929 C10.0992241,5.66445905 10.4005732,5.67151339 10.582245,5.86165282 C10.7639167,6.05179226 10.757245,6.3531501 10.5673363,6.5350631 Z" id="Shape" fill="#6ED37E" fill-rule="nonzero"></path>
                                    </g>
                                </g>
                            </g>
                            <circle id="Oval" fill="#F3F2F9" cx="48" cy="15.2380952" r="15.2380952"></circle>
                        </g>
                    </g>
                </g>
            </g>
        </g>
    </g>
</svg>