<?xml version="1.0" encoding="UTF-8"?>
<svg width="288px" height="172px" viewBox="0 0 288 172" version="1.1" xmlns="http://www.w3.org/2000/svg" xmlns:xlink="http://www.w3.org/1999/xlink">
    <title>Group 21</title>
    <defs>
        <linearGradient x1="0%" y1="32.3525006%" x2="100%" y2="67.6474994%" id="linearGradient-1">
            <stop stop-color="#F4FCFB" offset="0%"></stop>
            <stop stop-color="#DEF5F0" offset="100%"></stop>
        </linearGradient>
        <rect id="path-2" x="0" y="0.462169289" width="288" height="171.099631" rx="8"></rect>
        <rect id="path-4" x="0" y="0" width="119.557196" height="128.059041" rx="5.31365314"></rect>
        <filter x="-15.9%" y="-10.9%" width="131.8%" height="129.7%" filterUnits="objectBoundingBox" id="filter-6">
            <feMorphology radius="2.5" operator="erode" in="SourceAlpha" result="shadowSpreadOuter1"></feMorphology>
            <feOffset dx="0" dy="5" in="shadowSpreadOuter1" result="shadowOffsetOuter1"></feOffset>
            <feGaussianBlur stdDeviation="8" in="shadowOffsetOuter1" result="shadowBlurOuter1"></feGaussianBlur>
            <feColorMatrix values="0 0 0 0 0.826381407   0 0 0 0 0.925016984   0 0 0 0 0.906229255  0 0 0 1 0" type="matrix" in="shadowBlurOuter1"></feColorMatrix>
        </filter>
        <circle id="path-7" cx="10.6273063" cy="10.6273063" r="10.6273063"></circle>
        <filter x="-61.2%" y="-37.6%" width="222.3%" height="222.3%" filterUnits="objectBoundingBox" id="filter-8">
            <feMorphology radius="1.5" operator="erode" in="SourceAlpha" result="shadowSpreadOuter1"></feMorphology>
            <feOffset dx="0" dy="5" in="shadowSpreadOuter1" result="shadowOffsetOuter1"></feOffset>
            <feGaussianBlur stdDeviation="5" in="shadowOffsetOuter1" result="shadowBlurOuter1"></feGaussianBlur>
            <feColorMatrix values="0 0 0 0 0.786982474   0 0 0 0 0.876726676   0 0 0 0 0.858777835  0 0 0 1 0" type="matrix" in="shadowBlurOuter1"></feColorMatrix>
        </filter>
        <circle id="path-9" cx="10.6273063" cy="10.6273063" r="10.6273063"></circle>
        <filter x="-61.2%" y="-37.6%" width="222.3%" height="222.3%" filterUnits="objectBoundingBox" id="filter-10">
            <feMorphology radius="1.5" operator="erode" in="SourceAlpha" result="shadowSpreadOuter1"></feMorphology>
            <feOffset dx="0" dy="5" in="shadowSpreadOuter1" result="shadowOffsetOuter1"></feOffset>
            <feGaussianBlur stdDeviation="5" in="shadowOffsetOuter1" result="shadowBlurOuter1"></feGaussianBlur>
            <feColorMatrix values="0 0 0 0 0.786982474   0 0 0 0 0.876726676   0 0 0 0 0.858777835  0 0 0 1 0" type="matrix" in="shadowBlurOuter1"></feColorMatrix>
        </filter>
        <circle id="path-11" cx="235.394834" cy="73.2592173" r="17.00369"></circle>
        <filter x="-55.9%" y="-41.2%" width="211.7%" height="211.7%" filterUnits="objectBoundingBox" id="filter-12">
            <feMorphology radius="2.5" operator="erode" in="SourceAlpha" result="shadowSpreadOuter1"></feMorphology>
            <feOffset dx="0" dy="5" in="shadowSpreadOuter1" result="shadowOffsetOuter1"></feOffset>
            <feGaussianBlur stdDeviation="8" in="shadowOffsetOuter1" result="shadowBlurOuter1"></feGaussianBlur>
            <feColorMatrix values="0 0 0 0 0.826381407   0 0 0 0 0.925016984   0 0 0 0 0.906229255  0 0 0 1 0" type="matrix" in="shadowBlurOuter1"></feColorMatrix>
        </filter>
        <circle id="path-13" cx="40.3837638" cy="132.240767" r="17.00369"></circle>
        <filter x="-55.9%" y="-41.2%" width="211.7%" height="211.7%" filterUnits="objectBoundingBox" id="filter-14">
            <feMorphology radius="2.5" operator="erode" in="SourceAlpha" result="shadowSpreadOuter1"></feMorphology>
            <feOffset dx="0" dy="5" in="shadowSpreadOuter1" result="shadowOffsetOuter1"></feOffset>
            <feGaussianBlur stdDeviation="8" in="shadowOffsetOuter1" result="shadowBlurOuter1"></feGaussianBlur>
            <feColorMatrix values="0 0 0 0 0.826381407   0 0 0 0 0.925016984   0 0 0 0 0.906229255  0 0 0 1 0" type="matrix" in="shadowBlurOuter1"></feColorMatrix>
        </filter>
        <path d="M11.0900053,17.00369 C12.4154244,17.00369 13.4693721,16.4843466 14.2518485,15.4456596 C14.9065736,14.582835 15.2924888,13.5139217 15.4095941,12.2389198 L15.4095941,12.2389198 L14.1081283,12.2389198 C13.9750541,13.035796 13.7727813,13.6787927 13.5013099,14.1679098 C12.984982,15.0966828 12.2344435,15.5610693 11.2496943,15.5610693 C10.1797777,15.5610693 9.37600949,15.1214134 8.83838969,14.2421017 C8.51368862,13.7145147 8.28746247,13.090753 8.15971123,12.3708165 L8.15971123,12.3708165 L12.3355799,12.3708165 L12.6709269,11.2002328 L8.03994444,11.2002328 C8.03462147,11.068336 8.03195999,10.9309436 8.03195999,10.7880554 C8.03195999,10.4748006 8.03994444,10.178033 8.05591335,9.89775235 L8.05591335,9.89775235 L12.3355799,9.89775235 L12.6709269,8.72716864 L8.2156024,8.72716864 C8.35932254,7.99624079 8.59619463,7.39995754 8.92621867,6.9383189 C9.52239112,6.09747708 10.307529,5.67705618 11.2816322,5.67705618 C12.0747544,5.67705618 12.6922188,5.90512765 13.1340251,6.36127059 C13.5758315,6.81741354 13.8685948,7.43567958 14.0123149,8.21606872 L14.0123149,8.21606872 L15.3137807,8.21606872 C15.2392591,7.18837316 14.8573361,6.27059157 14.1680117,5.46272395 C13.4786873,4.65485632 12.5112378,4.25092251 11.2656633,4.25092251 C9.80184696,4.25092251 8.65474728,4.8719364 7.82436422,6.11396418 C7.32932817,6.85038773 6.99131968,7.72145588 6.81033876,8.72716864 L6.81033876,8.72716864 L5.11763483,8.72716864 L4.78228782,9.89775235 L6.68258752,9.89775235 C6.67194158,10.1010932 6.66661861,10.304434 6.66661861,10.5077748 C6.66661861,10.7440899 6.67194158,10.9749092 6.68258752,11.2002328 L6.68258752,11.2002328 L5.11763483,11.2002328 L4.78228782,12.3708165 L6.79436985,12.3708165 C7.00196562,13.8051937 7.47304831,14.9235683 8.20761794,15.7259402 C8.98477132,16.5777734 9.9455671,17.00369 11.0900053,17.00369 Z" id="path-15"></path>
    </defs>
    <g id="Page-1" stroke="none" stroke-width="1" fill="none" fill-rule="evenodd">
        <g id="320" transform="translate(-16.000000, -4849.000000)">
            <g id="04_toolbox" transform="translate(0.000000, 4178.000000)">
                <g id="Group-21" transform="translate(16.000000, 671.000000)">
                    <g id="Fill-4-Copy-2">
                        <mask id="mask-3" fill="white">
                            <use xlink:href="#path-2"></use>
                        </mask>
                        <use id="Mask" fill="url(#linearGradient-1)" xlink:href="#path-2"></use>
                        <path d="M279.883055,-29.2250923 C286.715029,-29.2250923 293.401107,-27.315558 299.139372,-23.7381155 C307.495166,-18.530978 312.838472,-10.5290266 314.777801,-1.83901052 C316.728851,6.91407228 315.234341,16.3904661 309.802223,24.5090628 L309.802223,24.5090628 L257.836027,102.174673 C255.077004,106.296858 251.444826,109.808265 247.173607,112.471496 C238.944264,117.601719 229.340678,119.039249 220.462665,117.19406 C211.525055,115.336485 203.344022,110.163274 197.996992,102.173743 L197.996992,102.173743 L146.030823,24.5103301 C142.246969,18.8573997 140.242741,12.2665313 140.242741,5.53621331 C140.242741,-4.09641136 144.262719,-12.8309664 150.807202,-19.147332 C157.241802,-25.3595356 166.125543,-29.2250923 175.949142,-29.2250923 L175.949142,-29.2250923 Z" stroke="#A8E4D6" stroke-width="17.00369" opacity="0.401506696" mask="url(#mask-3)"></path>
                        <path d="M9.96191819,36.9298893 C13.8722138,36.9298893 17.6975541,38.0212925 20.9806721,40.0582339 C25.830767,43.0661212 28.9144388,47.6975631 30.0392311,52.7133779 C31.1786055,57.8003481 30.3137669,63.3102487 27.1402105,68.0304228 L27.1402105,68.0304228 L4.12124313,102.267263 C2.52732105,104.637213 0.431160906,106.658654 -2.03705819,108.190238 C-6.74339463,111.110044 -12.235403,111.9347 -17.3142324,110.884218 C-22.4606534,109.819756 -27.1588948,106.840824 -30.2352334,102.266333 L-30.2352334,102.266333 L-53.2533623,68.0316906 C-55.4625165,64.7472202 -56.628108,60.9168806 -56.628108,57.0073333 C-56.628108,51.4250661 -54.3008606,46.3548788 -50.4872343,42.6919368 C-46.7989339,39.1482901 -41.7103905,36.9298893 -36.0759225,36.9298893 L-36.0759225,36.9298893 Z" id="Fill-4-Copy-4" stroke="#A8E4D6" stroke-width="17.00369" opacity="0.401506696" mask="url(#mask-3)" transform="translate(-13.056152, 74.125461) scale(-1, 1) rotate(90.000000) translate(13.056152, -74.125461) "></path>
                        <path d="M390.938406,-29.2250923 C397.770379,-29.2250923 404.456457,-27.315558 410.194723,-23.7381155 C418.550517,-18.530978 423.893823,-10.5290266 425.833152,-1.83901052 C427.784201,6.91407228 426.289691,16.3904661 420.857573,24.5090628 L420.857573,24.5090628 L368.891378,102.174673 C366.132354,106.296858 362.500176,109.808265 358.228957,112.471496 C349.999614,117.601719 340.396029,119.039249 331.518015,117.19406 C322.580405,115.336485 314.399373,110.163274 309.052343,102.173743 L309.052343,102.173743 L257.086174,24.5103301 C253.30232,18.8573997 251.298091,12.2665313 251.298091,5.53621331 C251.298091,-4.09641136 255.31807,-12.8309664 261.862553,-19.147332 C268.297153,-25.3595356 277.180893,-29.2250923 287.004493,-29.2250923 L287.004493,-29.2250923 Z" id="Fill-4-Copy-3" stroke="#A8E4D6" stroke-width="17.00369" opacity="0.401506696" mask="url(#mask-3)"></path>
                    </g>
                    <g id="Rectangle-Copy-4" transform="translate(83.955720, 24.373608)">
                        <mask id="mask-5" fill="white">
                            <use xlink:href="#path-4"></use>
                        </mask>
                        <g id="Mask">
                            <use fill="black" fill-opacity="1" filter="url(#filter-6)" xlink:href="#path-4"></use>
                            <use fill="#FDFDFF" fill-rule="evenodd" xlink:href="#path-4"></use>
                        </g>
                        <rect fill="#EAF0F0" opacity="0.483770461" mask="url(#mask-5)" x="13.2841328" y="122.745387" width="90.8634686" height="37.7269373" rx="2.12546125"></rect>
                    </g>
                    <g id="Group-22" transform="translate(97.239852, 58.380988)">
                        <rect id="Rectangle" fill="#ADC0CF" opacity="0.701148624" x="0" y="0" width="92.4575646" height="2.12546125" rx="1.06273063"></rect>
                        <rect id="Rectangle-Copy-5" fill="#EAF0F0" x="0" y="4.25092251" width="42.5092251" height="2.12546125" rx="1.06273063"></rect>
                        <rect id="Rectangle-Copy-13" fill="#EAF0F0" x="47.2915129" y="4.25092251" width="26.5682657" height="2.12546125" rx="1.06273063"></rect>
                    </g>
                    <g id="Group-22-Copy-5" transform="translate(97.239852, 136.491690)">
                        <rect id="Rectangle" fill="#ADC0CF" opacity="0.701148624" x="0" y="0" width="78.1107011" height="2.12546125" rx="1.06273063"></rect>
                        <rect id="Rectangle-Copy-5" fill="#EAF0F0" x="0" y="4.25092251" width="52.6051661" height="2.12546125" rx="1.06273063"></rect>
                        <rect id="Rectangle-Copy-13" fill="#EAF0F0" x="60.0442804" y="4.25092251" width="26.5682657" height="2.12546125" rx="1.06273063"></rect>
                    </g>
                    <g id="Group-30" transform="translate(97.239852, 31.812723)">
                        <g id="Oval-Copy-10">
                            <use fill="black" fill-opacity="1" filter="url(#filter-8)" xlink:href="#path-7"></use>
                            <use fill="#FFFFFF" fill-rule="evenodd" xlink:href="#path-7"></use>
                        </g>
                        <g id="bmw-2" transform="translate(4.250923, 4.250923)">
                            <path d="M6.36977576,0 C9.87812022,0 12.7395225,2.86140233 12.7395225,6.36974678 C12.7395225,9.87812022 9.87812022,12.7394936 6.36977576,12.7394936 C2.86143131,12.7394936 0,9.87812022 0,6.36974678 C0,2.86140233 2.86143131,0 6.36977576,0 Z" id="Path" fill="#000000" fill-rule="nonzero"></path>
                            <path d="M2.66900943,4.45941111 L1.1659508,3.16662824 L1.72878262,2.51223734 C1.84332567,2.37908684 1.95053587,2.28555688 2.04977559,2.23106778 C2.14965295,2.17649173 2.25068966,2.15385557 2.35314655,2.16286946 C2.45519768,2.17159351 2.54127887,2.20535936 2.61057857,2.26494957 C2.67460326,2.32001834 2.71767284,2.3923903 2.73943949,2.48174663 C2.76161192,2.57069718 2.75468485,2.67144405 2.71952778,2.78311772 C2.83688223,2.7004566 2.95188901,2.65880722 3.06477999,2.6570682 C3.17804776,2.65561903 3.27841784,2.6925151 3.36591922,2.76775643 C3.4350709,2.82668496 3.48739879,2.90286189 3.51759021,2.98855322 C3.54842872,3.07509814 3.55828313,3.15778825 3.54755922,3.23682643 C3.5368353,3.31586461 3.50648951,3.40067051 3.4576522,3.49141805 C3.40878591,3.58219457 3.33655887,3.68320229 3.24088413,3.79444121 L2.66900943,4.45941111 Z M1.99630092,3.47895512 L2.320627,3.10187896 C2.40827329,2.99994376 2.46551583,2.92136932 2.49238359,2.86679327 C2.52756964,2.79540675 2.54081513,2.72975898 2.53130852,2.67002386 C2.52177293,2.61031772 2.4909634,2.55768356 2.43844518,2.51249819 C2.38876735,2.46974743 2.33280009,2.44563311 2.271239,2.44073488 C2.20904028,2.4359526 2.14889938,2.45342968 2.09093225,2.4925575 C2.03261732,2.53209108 1.94949246,2.61452033 1.84155767,2.73999018 L1.54201254,3.08828566 L1.99630092,3.47895512 L1.99630092,3.47895512 Z M2.69025438,4.07581365 L3.06347573,3.64190071 C3.12770331,3.56721007 3.17030915,3.51272097 3.19158309,3.47872325 C3.22891392,3.41835049 3.25331808,3.36232526 3.26479557,3.31009688 C3.27664985,3.25810036 3.27380946,3.20479959 3.25731781,3.15036846 C3.24013055,3.09602428 3.20824863,3.04814343 3.16030982,3.00689982 C3.10434256,2.95872913 3.04136127,2.93351343 2.97107613,2.93102085 C2.90116778,2.92878911 2.83230283,2.95006305 2.76451027,2.99492961 C2.69747129,3.03962226 2.61573764,3.11764601 2.5204107,3.22847916 L2.1737383,3.63155358 L2.69025438,4.07581365 L2.69025438,4.07581365 Z M5.16808823,2.23860351 L5.16808823,0.538427663 L5.61631904,0.538427663 L6.14837032,1.74220201 C6.19758441,1.85425247 6.23372692,1.93815989 6.25572544,1.99398223 C6.2813759,1.93221826 6.32117033,1.8411519 6.37560146,1.7212469 L6.91391319,0.538427663 L7.31449502,0.538427663 L7.31449502,2.23860351 L7.02755774,2.23860351 L7.02755774,0.815510532 L6.37403635,2.23860351 L6.10541668,2.23860351 L5.45502551,0.79133824 L5.45502551,2.23860351 L5.16808823,2.23860351 Z M9.23404747,3.23137752 L10.2743545,1.82080544 L10.416316,1.99601108 L9.71178355,2.89250169 C9.63927029,2.98568856 9.56402525,3.07671718 9.4861465,3.16546889 C9.65375845,3.08440187 9.75036067,3.03799918 9.77702555,3.02631881 L10.8658221,2.55072751 L11.0328834,2.7568876 L10.5155268,3.48225925 C10.3876223,3.66253701 10.2591092,3.8219756 10.1304801,3.960575 C10.2267925,3.90941901 10.3400603,3.85348073 10.469182,3.79261525 L11.4799548,3.30856075 L11.6192498,3.48043328 L10.0145169,4.19447236 L9.88107654,4.02975876 L10.6647052,2.94420837 C10.730295,2.85322896 10.7708719,2.79795731 10.7864941,2.77833543 C10.7150206,2.81378233 10.6532856,2.84291081 10.6011152,2.86577885 L9.37528437,3.4056267 L9.23404747,3.23137752 Z" id="Shape" fill="#FFFFFF" fill-rule="nonzero"></path>
                            <path d="M10.13248,6.432844 C10.13248,8.47056243 8.47056243,10.13248 6.432844,10.13248 L6.432844,6.432844 L10.13248,6.432844 Z" id="Path" fill="#00ACEC"></path>
                            <path d="M10.13248,6.30667855 C10.13248,4.2689891 8.47056243,2.60704257 6.432844,2.60704257 L6.432844,6.30667855 L10.13248,6.30667855 Z" id="Path" fill="#FFFFFF"></path>
                            <path d="M2.60707156,6.30667855 C2.60707156,4.2689891 4.2689891,2.60704257 6.30670753,2.60704257 L6.30670753,6.30667855 L2.60707156,6.30667855 Z" id="Path" fill="#00ACEC"></path>
                            <path d="M2.60707156,6.432844 C2.60707156,8.47056243 4.2689891,10.13248 6.30670753,10.13248 L6.30670753,6.432844 L2.60707156,6.432844 Z" id="Path" fill="#FFFFFF"></path>
                        </g>
                        <g id="Group-12" transform="translate(27.099631, 4.250923)">
                            <rect id="Rectangle" fill="#AABCCE" x="0" y="0" width="36.6642066" height="4.25092251" rx="1.06273063"></rect>
                            <rect id="Rectangle-Copy-5" fill="#EAF0F0" x="0" y="8.50184502" width="49.9483395" height="4.25092251" rx="1.06273063"></rect>
                        </g>
                    </g>
                    <g id="Group-30-Copy-3" transform="translate(97.239852, 110.986155)">
                        <g id="Oval-Copy-10">
                            <use fill="black" fill-opacity="1" filter="url(#filter-10)" xlink:href="#path-9"></use>
                            <use fill="#FFFFFF" fill-rule="evenodd" xlink:href="#path-9"></use>
                        </g>
                        <g id="amazon-icon-1" transform="translate(4.782288, 4.250923)" fill-rule="nonzero">
                            <path d="M6.05383658,0.020646114 C6.82759448,0.020646114 7.83835846,0.226400195 8.44888008,0.81231617 C9.22263798,1.5346002 9.14882105,2.49841548 9.14882105,3.54721922 L9.14882105,6.02498858 C9.14882105,6.76966281 9.45742861,7.09613538 9.74812401,7.49868746 C9.85097748,7.64179614 9.87336767,7.81403564 9.74364597,7.92132001 C9.41938885,8.19188781 8.84242895,8.69507792 8.52491246,8.97686438 L8.52043442,8.97238634 C8.4153655,9.06628373 8.26330074,9.07302436 8.1447977,9.01037896 C7.61704909,8.57209684 7.52310456,8.36860535 7.23240916,7.9504037 C6.36027582,8.84044919 5.74306071,9.10653894 4.61153111,9.10653894 C3.27424742,9.10653894 2.23213717,8.2813543 2.23213717,6.62876958 C2.23213717,5.33848173 2.93212529,4.45960776 3.92719256,4.03028172 C4.79041696,3.65007269 5.99576349,3.58299639 6.91710811,3.47792746 L6.91710811,3.27217338 C6.91710811,2.89422694 6.94614466,2.44698874 6.72478815,2.12051617 C6.53020559,1.82755819 6.15899978,1.70679256 5.83248007,1.70679256 C5.22648363,1.70679256 4.6853009,2.01761557 4.55336375,2.66165177 C4.52649552,2.80480758 4.42142659,2.94570081 4.27831791,2.9523943 L2.73528014,2.78694257 C2.60560558,2.75781175 2.4624969,2.65274283 2.49827407,2.45368223 C2.85383032,0.584219034 4.54214508,0.020646114 6.05383658,0.020646114 Z M6.91710811,4.75256575 C5.76761922,4.75256575 4.55336375,4.9985279 4.55336375,6.35372374 C4.55336375,7.0402306 4.90892,7.50538095 5.51944161,7.50538095 C5.96667981,7.50538095 6.36696931,7.23033512 6.61967209,6.78304978 C6.93275768,6.23295812 6.91710811,5.71638103 6.91710811,5.09695047 L6.91710811,5.09695047 Z" id="Combined-Shape" fill="#000000"></path>
                            <path d="M10.2524925,9.91409425 C5.2920044,12.274869 2.21347083,10.2996769 0.242803957,9.09998687 C0.1208599,9.02437872 -0.086402573,9.11766333 0.0934260227,9.32421875 C0.749953593,10.1202726 2.90153321,12.0389942 5.70997037,12.0389942 C8.52034014,12.0389942 10.1922511,10.5055253 10.4013991,10.2380214 C10.609133,9.97278012 10.4623947,9.82646611 10.2524454,9.91409425 L10.2524925,9.91409425 Z M11.6456339,9.14472011 C11.512424,8.97125505 10.8356274,8.93891889 10.4096953,8.99124124 C9.98310318,9.04205519 9.34279082,9.3027713 9.39845991,9.4593141 C9.42702508,9.51795283 9.48533386,9.49165025 9.77838612,9.46530053 C10.0722397,9.43598116 10.8954446,9.33209067 11.066977,9.55632255 C11.2393108,9.78210996 10.8044226,10.8576877 10.7249963,11.0311527 C10.6482569,11.2046178 10.7543157,11.249351 10.8984614,11.1338176 C11.0406273,11.0183314 11.2979967,10.7192456 11.4707075,10.2960002 C11.64224,9.87044516 11.7468375,9.27679868 11.6455867,9.14472011 L11.6456339,9.14472011 Z" id="Shape" fill="#FF9900"></path>
                            <path d="M10.2524925,9.91409425 C5.2920044,12.274869 2.21347083,10.2996769 0.242803957,9.09998687 C0.1208599,9.02437872 -0.086402573,9.11766333 0.0934260227,9.32421875 C0.749953593,10.1202726 2.90153321,12.0389942 5.70997037,12.0389942 C8.52034014,12.0389942 10.1922511,10.5055253 10.4013991,10.2380214 C10.609133,9.97278012 10.4623947,9.82646611 10.2524454,9.91409425 L10.2524925,9.91409425 Z M11.6456339,9.14472011 C11.512424,8.97125505 10.8356274,8.93891889 10.4096953,8.99124124 C9.98310318,9.04205519 9.34279082,9.3027713 9.39845991,9.4593141 C9.42702508,9.51795283 9.48533386,9.49165025 9.77838612,9.46530053 C10.0722397,9.43598116 10.8954446,9.33209067 11.066977,9.55632255 C11.2393108,9.78210996 10.8044226,10.8576877 10.7249963,11.0311527 C10.6482569,11.2046178 10.7543157,11.249351 10.8984614,11.1338176 C11.0406273,11.0183314 11.2979967,10.7192456 11.4707075,10.2960002 C11.64224,9.87044516 11.7468375,9.27679868 11.6455867,9.14472011 L11.6456339,9.14472011 Z" id="Shape" fill="#FF9900"></path>
                        </g>
                        <g id="Group-12" transform="translate(27.099631, 4.250923)">
                            <rect id="Rectangle" fill="#AABCCE" x="0" y="0" width="30.8191882" height="4.25092251" rx="1.06273063"></rect>
                            <rect id="Rectangle-Copy-5" fill="#EAF0F0" x="0" y="8.50184502" width="46.7601476" height="4.25092251" rx="1.06273063"></rect>
                        </g>
                    </g>
                    <rect id="Rectangle" fill="#EAF0F0" opacity="0.483770461" x="97.2398524" y="67.9455641" width="90.8634686" height="37.7269373" rx="2.12546125"></rect>
                    <g id="Oval">
                        <use fill="black" fill-opacity="1" filter="url(#filter-12)" xlink:href="#path-11"></use>
                        <use fill="#FDFDFF" fill-rule="evenodd" xlink:href="#path-11"></use>
                    </g>
                    <g id="Oval-Copy-13">
                        <use fill="black" fill-opacity="1" filter="url(#filter-14)" xlink:href="#path-13"></use>
                        <use fill="#FDFDFF" fill-rule="evenodd" xlink:href="#path-13"></use>
                    </g>
                    <g id="trend-down" transform="translate(235.798893, 72.855158) scale(1, -1) translate(-235.798893, -72.855158) translate(225.298893, 62.355158)">
                        <rect id="Rectangle" x="0" y="0" width="20.4044299" height="20.4044299"></rect>
                        <polyline id="Path" stroke="#0ECFA0" stroke-width="1.27527687" stroke-linecap="round" stroke-linejoin="round" points="18.491674 15.9409608 10.8400128 8.28929963 7.65182061 11.4774918 1.91307471 5.7387459"></polyline>
                        <polyline id="Path" stroke="#0ECFA0" stroke-width="1.27527687" stroke-linecap="round" stroke-linejoin="round" points="18.491674 10.8398534 18.491674 15.9409608 13.3905665 15.9409608"></polyline>
                    </g>
                    <g id="trend-down" transform="translate(30.287823, 121.613461)">
                        <rect id="Rectangle" x="0" y="0" width="20.4044299" height="20.4044299"></rect>
                        <polyline id="Path" stroke="#0ECFA0" stroke-width="1.27527687" stroke-linecap="round" stroke-linejoin="round" points="18.491674 15.9409608 10.8400128 8.28929963 7.65182061 11.4774918 1.91307471 5.7387459"></polyline>
                        <polyline id="Path" stroke="#0ECFA0" stroke-width="1.27527687" stroke-linecap="round" stroke-linejoin="round" points="18.491674 10.8398534 18.491674 15.9409608 13.3905665 15.9409608"></polyline>
                    </g>
                    <g id="facebook-2" transform="translate(216.797048, 115.237077)" fill="#3EC4A5" fill-rule="nonzero" opacity="0.395531064">
                        <path d="M7.58776802,22.8487085 L7.58776802,12.4262002 L11.0343522,12.4262002 L11.5503561,8.36442092 L7.58776802,8.36442092 L7.58776802,5.77109626 C7.58776802,4.59514092 7.90952312,3.79366414 9.57101865,3.79366414 L11.6900369,3.79267112 L11.6900369,0.159876082 C11.3233883,0.110556131 10.0656084,0 8.60227491,0 C5.54712323,0 3.45549764,1.89280482 3.45549764,5.36903384 L3.45549764,8.36453125 L0,8.36453125 L0,12.4263106 L3.45538894,12.4263106 L3.45538894,22.8487085 L7.58776802,22.8487085 Z" id="Path"></path>
                    </g>
                    <g id="apple-(6)" transform="translate(44.634686, 71.133756)" fill="#3EC4A5" fill-rule="nonzero" opacity="0.395531064">
                        <path d="M11.2245431,2.04864978 C12.7570048,0.00993908203 14.8874929,0 14.8874929,0 C14.8874929,0 15.2043994,1.91673457 13.6819763,3.76316076 C12.0564082,5.73473431 10.2087259,5.41212022 10.2087259,5.41212022 C10.2087259,5.41212022 9.86178017,3.86154607 11.2245431,2.04864978 Z M9.99893096,7.23215717 C10.8141062,7.23215717 12.3270296,6.11070111 14.2963101,6.11070111 C17.6860858,6.11070111 19.0196199,8.52470229 19.0196199,8.52470229 C19.0196199,8.52470229 16.4114633,9.85927624 16.4114633,13.0975579 C16.4114633,16.7506166 19.6605166,18.0095783 19.6605166,18.0095783 C19.6605166,18.0095783 17.3893091,24.4073575 14.3215466,24.4073575 C12.9125406,24.4073575 11.8171093,23.4570698 10.3325126,23.4570698 C8.81958917,23.4570698 7.31823415,24.4428044 6.34038834,24.4428044 C3.53905542,24.4428044 0,18.3739207 0,13.4954837 C0,8.69579135 2.99557885,6.17794723 5.80531074,6.17794723 C7.63188804,6.17794723 9.04933262,7.23215717 9.99893096,7.23215717 Z" id="Shape"></path>
                    </g>
                    <g id="bitcoin" transform="translate(16.472325, 24.904974)" fill-rule="nonzero">
                        <path d="M18.3197402,11.5484683 C17.077617,16.5300345 12.0312373,19.5614584 7.04850403,18.3194812 C2.06809578,17.0775041 -0.963975144,12.0317177 0.278438657,7.05044203 C1.51998059,2.0682946 6.56606967,-0.963710428 11.5473498,0.278266715 C16.5297924,1.52024386 19.5615727,6.56661144 18.3194495,11.5484683 L18.3197402,11.5484683 Z" id="Path" fill="#A9E4D6"></path>
                        <path d="M13.2605936,7.88757229 C13.4482521,6.65928908 12.4916661,5.9989931 11.1836631,5.55850732 L11.60796,3.89464223 L10.5717077,3.64223551 L10.158623,5.26225395 C9.88657729,5.19590704 9.60685997,5.13331017 9.32891302,5.07129024 L9.74494827,3.4405986 L8.70958111,3.18819188 L8.28498911,4.85148004 C8.05956292,4.80128716 7.83826758,4.75167122 7.62346356,4.69945908 L7.6246438,4.69426672 L6.19596106,4.34551275 L5.92037459,5.42725583 C5.92037459,5.42725583 6.68900709,5.59946933 6.67277876,5.61014253 C7.09235474,5.71254754 7.16848033,5.98399293 7.15549767,6.19918769 L6.67218864,8.09469003 C6.70110457,8.10190166 6.73857724,8.11228639 6.77988571,8.12844042 L6.67071334,8.10190166 L5.99295946,10.7572203 C5.94161894,10.8818371 5.81149728,11.0687623 5.51820718,10.9978 C5.5285343,11.0125117 4.76521289,10.8140479 4.76521289,10.8140479 L4.25092251,11.9736765 L5.59934881,12.3022379 C5.8501502,12.3636809 6.09593556,12.4280086 6.33759008,12.4885862 L5.90886723,14.1717784 L6.94364426,14.4241852 L7.36853133,12.7591662 C7.65090418,12.8341671 7.92531041,12.9033986 8.19381543,12.9685917 L7.77069873,14.6258221 L8.80665601,14.8782288 L9.23537885,13.1984981 C11.0019058,13.5253288 12.3305631,13.3935003 12.8891125,11.8317518 C13.3396698,10.5740452 12.866983,9.84855615 11.9375425,9.37518538 C12.6144112,9.22201056 13.1242757,8.78671714 13.2602986,7.88757229 L13.2605936,7.88757229 Z M10.8933236,11.1325131 C10.5728879,12.3902197 8.40714414,11.7105966 7.70460519,11.5398254 L8.27348175,9.31028079 C8.97572565,9.4816289 11.227332,9.82086353 10.8936186,11.1325131 L10.8933236,11.1325131 Z M11.2134642,7.86939901 C10.9213543,9.01345049 9.11853491,8.43219388 8.53343002,8.28969225 L9.0491957,6.26755385 C9.63430059,6.41005548 11.5179666,6.67602004 11.2134642,7.86939901 L11.2134642,7.86939901 Z" id="Shape" fill="#FFFFFF"></path>
                    </g>
                    <g id="eur-1" transform="translate(243.588062, 27.508121) rotate(20.000000) translate(-243.588062, -27.508121) translate(232.588062, 16.508121)" fill-rule="nonzero">
                        <path d="M10.6472911,0 C16.516319,0.0110648968 21.2656541,4.77826649 21.2546125,10.6472932 C21.2435325,16.5163199 16.47633,21.2656541 10.6073021,21.2546125 C4.74593176,21.2435325 0,16.4890933 0,10.6277241 C0.00595581253,4.75274159 4.77315833,-0.00510087694 10.6472911,0 Z" id="Path" fill="#A2E2D3"></path>
                        <g id="€">
                            <use fill="#000000" xlink:href="#path-15"></use>
                            <use fill="#FFFFFF" xlink:href="#path-15"></use>
                        </g>
                    </g>
                    <circle id="Oval" fill="#0ECFA0" cx="195.542435" cy="32.8754534" r="1.06273063"></circle>
                    <circle id="Oval-Copy-14" fill="#0ECFA0" cx="190.760148" cy="32.8754534" r="1.06273063"></circle>
                    <circle id="Oval-Copy-15" fill="#0ECFA0" cx="185.97786" cy="32.8754534" r="1.06273063"></circle>
                </g>
            </g>
        </g>
    </g>
</svg>